<?xml version="1.0" standalone="no"?>
<!DOCTYPE svg PUBLIC "-//W3C//DTD SVG 20010904//EN"
 "http://www.w3.org/TR/2001/REC-SVG-20010904/DTD/svg10.dtd">
<svg version="1.0" xmlns="http://www.w3.org/2000/svg"
 width="750.000000pt" height="750.000000pt" viewBox="0 0 750.000000 750.000000"
 preserveAspectRatio="xMidYMid meet">

<g transform="translate(0.000000,750.000000) scale(0.100000,-0.100000)"
fill="#000000" stroke="none">
<path d="M3753 7225 c-36 -19 -54 -74 -46 -137 6 -45 -3 -47 -53 -13 -46 31
-110 34 -146 5 -35 -27 -54 -97 -38 -145 7 -20 10 -38 7 -41 -2 -3 -26 0 -52
6 -85 19 -142 -6 -164 -71 -14 -43 -1 -91 38 -132 48 -52 64 -52 31 0 -35 55
-36 65 -13 104 26 44 78 57 140 35 26 -10 59 -20 71 -23 l24 -6 -20 40 c-25
49 -36 103 -27 141 5 23 14 32 44 41 49 14 94 -3 157 -61 39 -36 44 -38 44
-19 0 11 -5 40 -12 64 -13 50 -5 106 20 137 14 17 29 22 59 22 51 -1 68 -16
112 -105 33 -67 51 -78 51 -30 0 24 32 79 55 95 19 14 90 8 110 -10 29 -24 55
-84 55 -127 0 -40 20 -45 30 -7 7 30 58 62 98 62 74 0 151 -89 137 -158 -5
-24 -4 -24 14 8 24 42 26 72 6 113 -41 83 -169 108 -229 45 -19 -20 -19 -20
-38 40 -15 49 -25 64 -54 81 -54 32 -94 28 -137 -16 -21 -20 -37 -46 -37 -59
0 -12 -7 -24 -15 -28 -10 -3 -15 1 -15 13 0 29 -35 104 -57 124 -29 25 -110
32 -150 12z"/>
<path d="M3097 7066 c-48 -26 -66 -56 -67 -109 0 -60 26 -101 75 -117 90 -30
165 24 165 117 -1 47 -24 93 -48 93 -6 0 -12 5 -14 11 -6 18 -80 21 -111 5z"/>
<path d="M3810 7030 c-25 -47 15 -89 66 -70 27 10 34 56 12 78 -19 19 -66 15
-78 -8z"/>
<path d="M4036 7031 c-23 -25 -13 -59 21 -72 46 -17 86 27 63 71 -14 26 -61
27 -84 1z"/>
<path d="M2700 6990 c0 -89 120 -180 237 -180 33 0 55 -5 63 -15 18 -22 30
-18 30 11 0 28 -64 102 -115 134 -17 10 -60 21 -100 25 -59 6 -74 11 -92 33
l-23 27 0 -35z"/>
<path d="M4278 6989 c-24 -13 -23 -52 2 -74 17 -15 24 -16 45 -7 35 16 36 77
3 86 -29 7 -30 7 -50 -5z"/>
<path d="M3606 6924 c-17 -17 -19 -27 -10 -61 5 -18 14 -23 38 -23 39 0 56 15
56 52 0 43 -53 64 -84 32z"/>
<path d="M4858 6886 c-46 -44 -76 -107 -85 -177 -4 -28 2 -50 25 -90 25 -46
40 -60 103 -95 41 -23 87 -54 103 -68 24 -22 32 -24 45 -14 23 19 34 38 48 83
l13 40 -4 -47 c-3 -45 -2 -47 25 -53 15 -4 37 -1 49 5 27 15 49 8 29 -8 -8 -7
-23 -19 -33 -26 -19 -13 -19 -15 -2 -41 20 -31 71 -55 117 -55 40 0 109 20
130 37 8 7 21 13 27 13 7 0 12 4 12 9 0 15 65 51 91 51 13 -1 42 -9 64 -20 49
-24 55 -24 55 -4 0 36 -80 144 -106 144 -6 0 -14 6 -17 13 -3 7 -30 19 -61 27
-66 16 -119 4 -175 -38 l-34 -27 7 30 c3 17 10 73 14 125 5 53 12 102 16 109
5 7 27 25 50 40 61 38 50 51 -44 51 -124 0 -197 -43 -234 -139 -11 -30 -15
-58 -11 -90 l6 -46 -18 25 c-10 13 -36 40 -57 60 -96 86 -89 75 -84 151 6 84
-2 87 -64 25z m400 -77 c-38 -47 -57 -106 -66 -204 l-7 -70 -5 65 c-5 69 11
172 29 178 6 2 11 8 11 13 0 16 41 51 68 58 2 1 -12 -17 -30 -40z m-368 -78
c0 -22 19 -41 42 -41 14 0 16 -6 12 -29 -5 -24 1 -36 35 -71 49 -50 55 -75 9
-32 -18 17 -45 41 -60 54 -38 34 -68 104 -67 158 l0 45 14 -34 c8 -18 15 -41
15 -50z m375 -41 c3 -5 1 -10 -4 -10 -6 0 -11 5 -11 10 0 6 2 10 4 10 3 0 8
-4 11 -10z m260 -179 c22 -5 36 -9 32 -10 -124 -17 -163 -28 -236 -63 -67 -32
-88 -38 -105 -30 -18 9 -17 11 15 11 25 1 53 13 93 42 81 58 118 67 201 50z"/>
<path d="M4274 6871 c-60 -37 -120 -125 -148 -220 -29 -97 -13 -283 33 -386
33 -74 87 -175 93 -175 5 0 8 -6 8 -14 0 -8 4 -16 8 -18 4 -1 28 -29 52 -60
25 -32 48 -58 52 -58 5 0 8 -7 8 -15 0 -8 3 -15 8 -15 9 0 101 -122 128 -170
10 -19 22 -37 25 -40 3 -3 9 -12 12 -20 4 -12 6 -12 6 2 1 10 -7 34 -16 55
-43 98 -56 125 -76 155 -54 82 -116 242 -117 303 0 17 -7 41 -15 55 -14 26
-13 50 6 215 12 98 27 137 68 175 44 42 61 73 61 113 0 53 -26 93 -75 117 -51
25 -81 25 -121 1z"/>
<path d="M2520 6873 c-13 -3 -33 -11 -44 -19 -27 -19 -66 -18 -94 2 -31 21
-37 13 -18 -24 20 -38 66 -72 131 -94 66 -23 119 -22 191 3 39 13 72 18 97 14
44 -6 46 1 10 39 -52 56 -190 96 -273 79z"/>
<path d="M3907 6833 c-11 -10 -8 -23 4 -23 6 0 17 7 25 15 14 13 13 15 -4 15
-10 0 -22 -3 -25 -7z"/>
<path d="M3972 6828 c3 -7 28 -15 56 -18 67 -7 79 -19 61 -59 -13 -29 -39 -43
-39 -22 0 11 -65 9 -76 -2 -4 -4 -19 -7 -32 -7 -47 0 -13 -13 42 -15 69 -4 94
-12 98 -33 2 -9 12 16 21 57 18 78 21 98 11 89 -3 -3 -29 0 -57 8 -65 17 -90
18 -85 2z"/>
<path d="M3851 6821 c-10 -6 -9 -10 3 -14 8 -3 18 -2 21 3 8 13 -9 20 -24 11z"/>
<path d="M3776 6795 c-3 -9 0 -15 9 -15 9 0 12 6 9 15 -4 8 -7 15 -9 15 -2 0
-5 -7 -9 -15z"/>
<path d="M3412 6760 c-17 -28 -15 -53 8 -78 25 -27 51 -28 73 -4 20 22 22 73
5 90 -19 19 -72 15 -86 -8z"/>
<path d="M3695 6750 c-8 -13 5 -13 25 0 13 8 13 10 -2 10 -9 0 -20 -4 -23 -10z"/>
<path d="M2800 6718 c-58 -17 -119 -36 -137 -44 -17 -8 -36 -14 -42 -14 -6 0
-11 -4 -11 -9 0 -5 -12 -12 -26 -15 -26 -7 -86 -45 -92 -58 -2 -5 -7 -8 -12
-8 -22 0 -200 -174 -200 -195 0 -9 -44 -69 -52 -73 -5 -2 -8 -10 -8 -18 0 -8
-6 -27 -14 -42 -8 -15 -17 -46 -20 -67 l-5 -40 11 40 c6 22 14 42 17 45 3 3
14 21 24 40 49 92 76 128 152 203 94 93 220 171 311 193 16 4 34 10 39 14 17
13 191 40 258 40 69 -1 155 -19 204 -45 41 -21 75 -12 71 18 -2 17 -18 27 -63
44 -49 18 -81 22 -180 22 -104 0 -134 -4 -225 -31z"/>
<path d="M2230 6721 c-14 -5 -45 -20 -70 -35 -53 -30 -67 -32 -92 -9 -25 23
-35 8 -16 -25 26 -43 112 -81 185 -82 63 0 133 20 165 48 10 8 39 15 68 15 27
0 50 3 50 7 0 10 -43 43 -79 62 -40 20 -173 32 -211 19z"/>
<path d="M3636 6705 c-4 -10 1 -15 14 -15 11 0 20 7 20 15 0 8 -6 15 -14 15
-8 0 -16 -7 -20 -15z"/>
<path d="M2915 6683 c-54 -12 -75 -27 -95 -71 -17 -36 -21 -59 -17 -102 2 -33
-1 -71 -9 -94 -8 -21 -14 -40 -14 -42 0 -2 23 11 50 28 28 17 50 35 50 39 0 5
7 9 15 9 8 0 15 7 15 15 0 8 4 15 10 15 11 0 30 64 30 106 0 31 34 74 58 74 7
0 12 7 12 15 0 11 -11 15 -42 14 -24 -1 -52 -3 -63 -6z"/>
<path d="M3610 6660 c-13 -8 -12 -10 3 -10 9 0 17 5 17 10 0 12 -1 12 -20 0z"/>
<path d="M4555 6636 c-95 -26 -165 -106 -184 -207 -21 -113 24 -321 105 -484
l34 -70 -7 80 c-5 44 -8 136 -7 205 0 106 3 132 22 174 33 73 53 86 132 86 55
0 71 4 92 23 49 43 54 118 11 168 -30 35 -120 47 -198 25z"/>
<path d="M2674 6615 c-4 -8 -10 -15 -15 -15 -25 0 -80 -49 -94 -83 -19 -47
-13 -75 37 -153 24 -39 38 -73 38 -94 0 -28 2 -31 15 -20 8 7 15 19 15 26 0 8
9 31 20 51 25 48 26 125 1 177 -19 40 -18 55 6 91 7 11 13 23 13 27 0 14 -31
8 -36 -7z"/>
<path d="M4020 6605 c0 -8 4 -15 10 -15 5 0 7 7 4 15 -4 8 -8 15 -10 15 -2 0
-4 -7 -4 -15z"/>
<path d="M3295 6600 c-38 -4 -83 -13 -98 -19 -16 -6 -37 -11 -48 -11 -27 0
-78 -39 -95 -72 -17 -33 -18 -111 -2 -141 38 -71 130 -106 195 -73 83 42 165
75 218 87 107 25 256 11 385 -36 92 -34 223 -137 347 -275 39 -43 73 -75 73
-69 0 5 -69 101 -90 126 -5 7 -10 14 -10 17 0 9 -75 131 -82 134 -5 2 -8 8 -8
13 0 13 -72 109 -82 109 -4 0 -8 7 -8 15 0 8 -3 15 -7 15 -5 0 -27 17 -50 38
-50 45 -144 95 -233 122 -75 24 -289 34 -405 20z"/>
<path d="M3870 6556 c0 -20 27 -28 34 -10 9 23 8 24 -14 24 -11 0 -20 -6 -20
-14z"/>
<path d="M4035 6540 c-4 -17 -2 -43 3 -58 6 -15 13 -36 16 -47 2 -11 2 14 -1
55 -3 41 -7 76 -8 78 -2 2 -6 -11 -10 -28z"/>
<path d="M1985 6524 c-101 -22 -152 -49 -225 -123 -35 -36 -76 -74 -90 -83
-31 -22 -83 -23 -100 -3 -15 18 -30 20 -30 3 0 -25 74 -77 134 -93 63 -18 119
-16 214 7 44 10 111 37 122 48 3 3 23 17 45 32 22 15 49 40 60 54 56 73 93 94
166 94 62 0 19 33 -80 61 -77 22 -121 23 -216 3z"/>
<path d="M3983 6520 c1 -18 -3 -25 -15 -24 -20 2 -22 -4 -9 -25 8 -12 14 -13
35 -3 29 13 33 27 12 39 -7 4 -16 15 -19 23 -4 9 -6 4 -4 -10z"/>
<path d="M2443 6478 c-33 -41 -73 -131 -73 -163 0 -45 34 -98 94 -150 26 -22
58 -57 70 -78 l23 -38 7 63 c10 100 -8 166 -61 223 -41 45 -44 52 -42 96 3 53
-3 67 -18 47z"/>
<path d="M5031 6393 c-35 -14 -51 -43 -51 -93 0 -42 5 -55 27 -76 14 -13 37
-27 51 -31 30 -7 102 16 102 33 0 7 6 14 13 17 7 2 12 23 12 57 0 34 -5 55
-12 58 -7 2 -13 10 -13 17 0 21 -89 34 -129 18z"/>
<path d="M4638 6353 c-10 -2 -18 -8 -18 -13 0 -4 -8 -10 -18 -12 -11 -3 -32
-22 -48 -43 -25 -34 -28 -46 -28 -109 0 -55 5 -79 22 -106 l22 -35 0 36 c0 44
17 96 39 118 33 33 91 54 125 44 25 -7 34 -18 50 -59 30 -78 78 -94 136 -45
31 26 35 34 35 79 0 43 -5 56 -30 82 -52 55 -94 70 -187 69 -46 -1 -91 -3
-100 -6z"/>
<path d="M2125 6300 c-67 -17 -132 -65 -188 -138 -55 -73 -77 -128 -77 -198 0
-73 -30 -132 -70 -140 -45 -10 -27 -34 26 -34 40 0 124 33 132 52 2 4 8 8 13
8 11 0 79 68 79 80 0 6 4 10 9 10 24 0 81 169 81 241 0 42 5 54 36 89 35 38
35 40 13 39 -13 -1 -37 -5 -54 -9z"/>
<path d="M2294 6289 c-19 -24 -74 -145 -74 -162 0 -40 80 -157 108 -157 13 0
72 -65 72 -78 0 -7 4 -12 9 -12 5 0 12 -8 14 -17 3 -10 5 24 6 75 1 107 -15
151 -80 214 -34 33 -38 43 -41 94 -2 44 -6 54 -14 43z"/>
<path d="M5261 6274 c-37 -47 -17 -121 34 -125 57 -5 73 1 89 35 21 45 21 49
-10 85 -34 41 -83 43 -113 5z"/>
<path d="M5430 6250 c-6 -11 -8 -31 -4 -45 5 -22 11 -26 37 -23 40 4 55 29 37
62 -16 31 -55 35 -70 6z"/>
<path d="M5562 6228 c-17 -17 -15 -73 3 -88 8 -7 26 -9 43 -6 34 8 48 -6 89
-84 l28 -55 3 38 c5 53 -34 162 -65 187 -28 22 -82 27 -101 8z"/>
<path d="M1453 6213 c-12 -2 -34 -18 -48 -34 -48 -58 -27 -162 41 -194 57 -27
103 -14 153 44 31 36 29 110 -4 145 -38 41 -77 52 -142 39z"/>
<path d="M3460 6211 c-103 -15 -225 -78 -305 -156 -53 -51 -63 -67 -68 -105
-15 -102 26 -171 121 -205 49 -18 52 -18 99 0 26 10 50 21 53 24 14 18 99 81
109 81 6 0 11 4 11 8 0 10 55 35 140 62 58 19 81 21 210 17 80 -3 163 -10 185
-17 22 -6 65 -18 95 -27 71 -20 194 -80 226 -110 14 -12 27 -23 30 -23 8 0 93
-92 116 -126 43 -63 43 -31 0 56 -9 19 -19 37 -22 40 -3 3 -18 23 -34 45 -17
22 -40 50 -53 62 -13 12 -23 25 -23 28 0 5 -45 50 -107 106 -15 14 -44 36 -63
50 -19 13 -37 27 -40 30 -3 3 -12 9 -20 12 -8 4 -28 16 -45 27 -55 36 -147 72
-255 101 -84 22 -274 32 -360 20z"/>
<path d="M2870 6153 c-41 -20 -81 -43 -88 -50 -7 -7 -17 -13 -21 -13 -15 0
-208 -195 -272 -275 -70 -88 -138 -216 -163 -311 -24 -90 -21 -229 5 -289 36
-80 69 -103 135 -90 38 7 74 52 74 93 0 22 -26 82 -40 92 -3 3 -14 24 -23 48
-24 60 -22 182 3 263 26 83 85 201 118 237 6 7 12 17 12 21 0 4 31 39 69 77
70 73 151 139 243 200 69 45 41 44 -52 -3z"/>
<path d="M3098 6173 c7 -3 16 -2 19 1 4 3 -2 6 -13 5 -11 0 -14 -3 -6 -6z"/>
<path d="M5820 6158 c-41 -17 -82 -135 -73 -210 7 -50 -7 -48 -31 4 -36 78
-117 159 -175 176 -50 15 -107 15 -151 -1 -101 -37 -158 -104 -185 -215 -17
-67 -16 -72 4 -152 11 -46 19 -86 16 -88 -3 -3 -18 6 -33 20 -15 14 -38 29
-52 33 -14 4 -34 14 -45 21 -11 8 -38 14 -60 14 -69 0 -110 -64 -67 -103 14
-13 38 -17 97 -17 76 0 185 -25 185 -42 0 -4 -16 -14 -35 -22 -50 -21 -132
-102 -157 -155 -19 -39 -22 -64 -22 -161 0 -112 0 -116 33 -175 56 -98 137
-169 266 -229 44 -21 88 -42 97 -47 10 -5 27 -9 39 -9 11 0 45 -7 74 -15 38
-11 88 -15 180 -13 140 3 138 0 25 52 -30 14 -77 39 -105 56 -27 16 -60 35
-72 41 -13 7 -23 16 -23 21 0 4 -5 8 -11 8 -12 0 -126 85 -147 110 -27 31 -50
95 -45 122 19 96 124 104 261 21 137 -84 274 -226 337 -348 14 -27 50 -34 42
-9 -5 20 -38 131 -65 224 -11 38 -16 97 -16 195 0 228 42 311 150 290 25 -4
43 -17 64 -47 l30 -41 0 -156 c0 -155 -16 -279 -46 -363 -12 -32 -12 -38 0
-38 7 0 24 16 37 35 13 19 27 35 32 35 4 0 7 4 7 10 0 5 8 19 18 30 21 25 54
81 83 140 12 25 28 57 35 72 8 14 14 35 14 46 0 11 7 39 15 63 25 71 22 262
-6 344 -45 134 -196 245 -336 245 -57 0 -147 -25 -183 -50 l-30 -21 0 24 c0
42 46 130 84 161 29 24 36 36 36 66 0 30 -5 39 -25 48 -29 14 -31 14 -65 0z
m-225 -179 c38 -18 105 -71 105 -84 0 -3 10 -19 21 -35 23 -30 21 -69 -5 -100
-16 -18 -36 -118 -36 -176 0 -24 5 -66 11 -93 6 -28 9 -61 7 -73 -3 -21 -9
-17 -66 40 -35 34 -66 62 -69 62 -4 0 -14 6 -22 14 -38 34 -128 70 -190 75
l-64 6 -13 45 c-33 110 -2 221 85 304 50 47 153 54 236 15z m-481 -294 c-4 -8
-8 -15 -10 -15 -2 0 -4 7 -4 15 0 8 4 15 10 15 5 0 7 -7 4 -15z"/>
<path d="M5503 5973 c-7 -2 -13 -11 -13 -20 0 -12 -8 -13 -39 -8 -36 6 -40 4
-53 -21 -7 -16 -24 -31 -38 -35 -16 -4 -19 -7 -7 -8 12 -1 17 -9 17 -31 0 -26
-4 -30 -26 -30 l-26 0 23 -19 c30 -24 39 -19 39 24 0 29 4 36 27 41 17 5 28 3
31 -4 3 -11 42 -18 42 -8 0 21 -14 32 -37 28 -30 -6 -46 14 -32 40 12 23 31
23 53 -1 11 -12 25 -16 43 -13 18 3 30 -1 39 -13 17 -23 34 -11 33 23 0 15 -3
21 -6 15 -6 -16 -45 -17 -61 -1 -7 7 -8 17 -1 30 5 10 8 18 7 17 -2 0 -9 -3
-15 -6z"/>
<path d="M5608 5880 c22 -10 30 -44 12 -55 -5 -3 -10 -13 -10 -22 0 -13 3 -13
15 -3 8 7 15 21 15 31 0 11 5 19 11 19 6 0 9 8 7 17 -2 11 -15 18 -38 20 -30
2 -32 1 -12 -7z"/>
<path d="M5671 5795 c-14 -31 -30 -59 -36 -61 -7 -3 -10 -18 -7 -35 4 -29 6
-27 38 38 19 37 33 78 32 91 -2 18 -8 11 -27 -33z"/>
<path d="M5341 5748 c-1 -9 -8 -18 -18 -20 -14 -3 -14 -5 -2 -15 23 -19 42 -1
30 28 -7 16 -10 18 -10 7z"/>
<path d="M5511 5744 c0 -11 3 -14 6 -6 3 7 2 16 -1 19 -3 4 -6 -2 -5 -13z"/>
<path d="M5563 5733 c9 -2 17 -8 17 -13 0 -5 7 -7 15 -4 27 11 16 24 -17 23
-18 -1 -25 -3 -15 -6z"/>
<path d="M5370 5706 c0 -9 30 -14 35 -6 4 6 -3 10 -14 10 -12 0 -21 -2 -21 -4z"/>
<path d="M5471 5686 c-9 -10 -8 -15 1 -18 20 -8 37 2 31 18 -7 18 -17 18 -32
0z"/>
<path d="M5544 5654 c9 -8 20 -12 26 -9 19 12 10 25 -16 25 -23 0 -24 -1 -10
-16z"/>
<path d="M5605 5657 c-6 -7 -9 -23 -7 -36 4 -23 4 -23 18 5 15 28 7 51 -11 31z"/>
<path d="M5355 5652 c-12 -3 8 -11 50 -22 107 -27 159 -34 151 -21 -4 6 -20
11 -36 11 -16 0 -32 5 -35 10 -3 6 -22 10 -41 10 -20 0 -43 4 -52 8 -9 5 -26
7 -37 4z"/>
<path d="M3037 6145 c-54 -28 -157 -98 -157 -106 0 -5 -4 -9 -10 -9 -12 0
-140 -127 -140 -140 0 -6 -4 -10 -9 -10 -4 0 -23 -24 -41 -52 -117 -184 -156
-371 -111 -530 20 -69 62 -162 87 -189 8 -8 14 -19 14 -23 0 -13 60 -87 110
-136 93 -92 157 -134 230 -151 19 -4 53 -12 75 -18 57 -15 193 -13 251 3 27 8
61 17 76 20 38 9 91 64 107 114 25 75 -8 160 -76 195 -42 21 -137 23 -186 2
-45 -19 -103 -19 -159 -1 -24 7 -72 21 -108 30 -142 38 -225 101 -289 218 -33
61 -34 67 -35 173 0 83 4 122 18 160 19 53 48 117 56 125 3 3 19 25 35 50 45
67 182 200 255 248 62 40 66 58 7 27z"/>
<path d="M5172 6138 c-7 -7 -12 -21 -12 -33 0 -30 19 -45 56 -45 35 0 48 24
38 67 -5 18 -13 23 -38 23 -18 0 -37 -5 -44 -12z"/>
<path d="M6020 6124 c-54 -28 -204 -214 -174 -214 3 0 35 23 72 51 66 50 68
50 119 44 47 -6 55 -4 78 19 32 32 32 60 0 91 -26 27 -56 30 -95 9z"/>
<path d="M2162 6100 c0 -14 2 -19 5 -12 2 6 2 18 0 25 -3 6 -5 1 -5 -13z"/>
<path d="M4675 6072 c-78 -48 -110 -128 -93 -239 11 -78 28 -98 28 -35 1 72
17 126 45 149 25 22 28 22 62 8 48 -20 69 -19 93 5 29 29 25 66 -9 101 -35 34
-81 38 -126 11z"/>
<path d="M5058 5975 c-37 -50 -14 -118 72 -205 23 -23 43 -40 45 -38 10 9 -50
118 -64 119 -10 0 -8 3 6 9 27 11 43 40 43 78 0 58 -69 83 -102 37z"/>
<path d="M6090 5955 c0 -8 7 -15 15 -15 8 0 15 7 15 15 0 8 -7 15 -15 15 -8 0
-15 -7 -15 -15z"/>
<path d="M6156 5955 c-6 -18 16 -30 39 -21 8 3 15 12 15 21 0 20 -46 20 -54 0z"/>
<path d="M2904 5924 c-50 -65 -33 -191 31 -244 14 -11 15 -8 9 27 -8 52 11
113 35 113 28 0 51 33 51 75 0 45 -20 64 -67 65 -25 0 -38 -8 -59 -36z"/>
<path d="M1333 5943 c-15 -5 -18 -63 -4 -63 5 0 12 -16 15 -35 4 -20 13 -35
21 -35 10 0 14 15 14 62 -1 69 -11 86 -46 71z"/>
<path d="M2156 5929 c11 -18 6 -97 -8 -121 -16 -30 -37 -106 -38 -139 -1 -69
54 -160 113 -186 32 -15 35 -4 12 37 -25 44 -17 91 31 182 9 16 16 56 16 90
l1 62 -49 43 c-44 39 -95 60 -78 32z"/>
<path d="M6238 5928 c-7 -18 2 -38 16 -38 18 0 35 21 29 36 -6 17 -39 18 -45
2z"/>
<path d="M1498 5912 c-15 -2 -41 -17 -57 -35 -77 -78 -3 -207 118 -207 38 0
89 -38 126 -95 33 -51 46 -96 52 -186 5 -72 2 -98 -17 -157 -12 -40 -26 -72
-31 -72 -5 0 -9 -5 -9 -12 0 -6 -7 -20 -17 -30 -14 -16 -14 -18 0 -18 21 0 92
82 115 133 53 117 67 258 36 366 -56 197 -191 331 -316 313z"/>
<path d="M4735 5883 c-31 -8 -74 -53 -96 -101 -21 -45 -19 -86 6 -146 l13 -29
5 29 c3 16 9 49 13 72 5 38 11 46 40 58 18 8 44 14 58 14 50 0 75 60 38 93
-18 17 -38 19 -77 10z"/>
<path d="M1026 5857 c-13 -9 -16 -20 -11 -40 4 -15 12 -27 19 -27 6 -1 22 -14
36 -30 30 -38 43 -39 24 -2 -7 15 -14 39 -14 53 0 14 -8 33 -18 42 -15 14 -21
15 -36 4z"/>
<path d="M6292 5858 c-15 -15 -3 -38 19 -38 12 0 19 7 19 19 0 22 -23 34 -38
19z"/>
<path d="M4085 5838 c-70 -24 -100 -88 -75 -157 21 -59 46 -76 112 -76 76 0
108 29 116 104 5 59 -11 91 -61 121 -36 22 -48 23 -92 8z"/>
<path d="M1175 5785 c-28 -29 -35 -43 -35 -76 0 -36 -2 -39 -19 -29 -40 21
-87 12 -125 -24 -41 -40 -54 -90 -37 -146 15 -50 15 -50 -17 -39 -35 12 -75
-1 -111 -38 -23 -22 -26 -34 -26 -89 0 -37 6 -69 13 -76 19 -19 14 -26 -28
-39 -73 -22 -94 -120 -39 -184 25 -28 38 -35 67 -35 l37 0 -38 31 c-33 27 -37
36 -37 75 0 56 28 88 71 82 30 -5 50 8 33 21 -5 3 -15 19 -22 34 -37 86 23
177 118 177 l48 0 -12 42 c-17 56 -3 110 37 144 27 23 38 26 90 22 l58 -4 -6
38 c-9 51 12 83 60 92 49 10 95 -1 95 -22 0 -11 3 -13 11 -5 8 8 6 19 -5 41
-18 36 -33 42 -96 42 -43 0 -54 -5 -85 -35z"/>
<path d="M3827 5772 c-28 -30 -21 -58 21 -83 96 -58 131 -133 133 -281 l0 -73
19 55 c24 69 24 127 2 211 -23 86 -53 132 -111 171 -33 23 -44 22 -64 0z"/>
<path d="M6415 5765 c-28 -29 -33 -71 -11 -113 29 -59 27 -194 -4 -282 -16
-43 -47 -119 -68 -164 -13 -27 33 18 69 68 29 40 44 54 49 45 6 -9 16 -5 39
17 46 44 131 85 152 73 52 -27 113 9 113 68 0 44 -33 77 -76 77 -27 -1 -46
-14 -110 -77 -43 -43 -80 -77 -83 -77 -6 0 25 81 38 97 17 23 43 167 37 206
-14 81 -92 114 -145 62z"/>
<path d="M6330 5760 c0 -5 4 -10 9 -10 6 0 13 5 16 10 3 6 -1 10 -9 10 -9 0
-16 -4 -16 -10z"/>
<path d="M4293 5690 c0 -64 -3 -74 -28 -100 -16 -17 -49 -40 -74 -52 -51 -25
-127 -97 -153 -147 -11 -19 -18 -54 -18 -86 0 -43 5 -59 27 -85 22 -26 29 -30
37 -18 17 20 63 48 82 48 25 0 148 42 152 52 2 4 8 8 13 8 20 0 76 73 94 121
29 82 0 205 -66 282 -57 65 -66 62 -66 -23z m42 -164 c-16 -50 -73 -126 -94
-126 -6 0 -11 -4 -11 -8 0 -5 -15 -16 -34 -24 -42 -21 -105 -75 -117 -102 -8
-17 -8 -16 -4 7 6 32 23 49 91 96 92 64 139 128 166 226 13 48 13 49 16 17 2
-19 -4 -57 -13 -86z"/>
<path d="M1243 5733 c-7 -2 -13 -18 -13 -34 0 -26 4 -29 30 -29 26 0 30 3 30
29 0 17 -6 31 -16 35 -9 3 -16 6 -17 5 -1 0 -8 -3 -14 -6z"/>
<path d="M1891 5701 c-25 -23 -31 -37 -31 -70 0 -23 7 -58 15 -78 9 -20 15
-66 15 -109 0 -124 -44 -228 -137 -324 -35 -35 -63 -66 -63 -68 0 -19 120 52
172 101 37 35 118 141 118 155 0 4 5 13 12 20 23 23 78 199 78 250 0 44 -25
102 -57 130 -37 31 -83 29 -122 -7z"/>
<path d="M3160 5684 c-11 -12 -11 -18 2 -30 8 -8 22 -12 31 -8 21 8 22 40 1
48 -21 8 -20 8 -34 -10z"/>
<path d="M3277 5694 c-4 -4 -7 -18 -7 -30 0 -17 7 -25 26 -30 31 -8 47 6 42
37 -2 17 -10 25 -28 27 -14 2 -29 0 -33 -4z"/>
<path d="M1354 5651 c-128 -39 -184 -97 -184 -191 1 -42 6 -61 23 -81 61 -73
164 -77 235 -9 45 43 129 33 178 -21 27 -30 24 -140 -5 -196 -24 -48 -25 -53
-11 -53 10 0 90 104 90 118 0 5 7 23 16 40 24 50 20 172 -7 230 -43 88 -151
169 -237 178 -20 2 -64 -5 -98 -15z"/>
<path d="M2810 5653 c-32 -12 -50 -37 -50 -71 0 -42 47 -123 99 -171 109 -101
293 -119 395 -38 l29 24 -104 -1 c-87 -1 -110 2 -138 19 -41 24 -71 51 -71 65
0 6 -4 10 -10 10 -5 0 -13 12 -16 27 -4 15 -13 38 -20 52 -8 14 -14 34 -14 43
0 10 -13 24 -30 33 -30 16 -45 17 -70 8z"/>
<path d="M3080 5642 c0 -14 11 -21 26 -15 8 3 11 9 8 14 -7 11 -34 12 -34 1z"/>
<path d="M3397 5634 c-11 -12 -8 -59 5 -72 16 -16 53 -15 67 2 7 8 11 27 9 43
-3 24 -8 28 -38 31 -20 2 -39 0 -43 -4z"/>
<path d="M797 5603 c-27 -27 20 -75 86 -87 l37 -7 -31 51 c-25 40 -36 50 -58
50 -15 0 -31 -3 -34 -7z"/>
<path d="M3152 5593 c-50 -24 -75 -61 -68 -101 7 -43 20 -59 57 -67 21 -5 42
0 70 14 71 38 170 19 239 -46 26 -24 36 -29 38 -18 5 20 -37 105 -54 112 -8 3
-14 10 -14 17 0 6 -21 25 -48 43 -94 64 -157 77 -220 46z"/>
<path d="M3016 5592 c-2 -4 -1 -14 4 -22 7 -11 12 -12 21 -3 6 6 8 16 5 22 -8
13 -23 14 -30 3z"/>
<path d="M1068 5579 c-48 -27 0 -94 48 -68 28 14 31 41 8 63 -18 18 -32 20
-56 5z"/>
<path d="M4928 5583 c-15 -2 -41 -17 -59 -34 -25 -24 -30 -34 -25 -57 8 -32
40 -62 68 -62 25 0 68 39 68 62 0 19 66 58 97 58 10 0 41 9 68 20 l50 19 -120
-1 c-66 -1 -132 -3 -147 -5z"/>
<path d="M3750 5561 c-12 -23 -13 -61 -2 -79 5 -7 26 -16 47 -19 21 -3 45 -14
54 -23 22 -24 51 -78 51 -98 0 -9 9 -42 19 -72 17 -51 18 -53 25 -26 16 65
-25 246 -65 287 -51 51 -110 65 -129 30z"/>
<path d="M3505 5526 c-15 -16 -22 -31 -18 -44 8 -31 39 -55 65 -50 22 4 23 2
20 -41 -3 -42 -1 -48 25 -62 18 -11 35 -14 48 -8 45 17 72 10 115 -33 41 -41
49 -54 76 -128 l12 -35 8 29 c14 57 -31 191 -81 241 -51 50 -91 68 -139 61
l-43 -7 5 32 c4 25 0 36 -19 50 -32 25 -45 24 -74 -5z"/>
<path d="M5981 5494 c-45 -57 -13 -129 54 -127 70 2 100 79 50 128 -33 34 -77
33 -104 -1z"/>
<path d="M4734 5403 c-52 -112 -100 -143 -228 -144 -150 -1 -237 -25 -322 -89
-81 -61 -128 -182 -92 -239 9 -16 21 -17 80 -13 48 3 86 0 121 -11 105 -32
192 -41 254 -27 32 7 65 19 74 27 8 7 20 13 26 13 21 0 99 88 124 141 38 76
54 144 53 219 0 76 -29 180 -49 180 -8 0 -26 -26 -41 -57z m-7 -165 c-58 -122
-193 -198 -352 -198 -97 0 -180 -23 -231 -65 -32 -27 -41 -30 -37 -16 15 59
137 111 259 111 127 0 267 73 344 180 19 26 37 47 39 45 1 -2 -8 -28 -22 -57z"/>
<path d="M1076 5401 c-29 -32 3 -74 47 -63 23 6 24 67 1 76 -24 9 -29 8 -48
-13z"/>
<path d="M2790 5395 c0 -8 7 -15 15 -15 8 0 15 7 15 15 0 8 -7 15 -15 15 -8 0
-15 -7 -15 -15z"/>
<path d="M4970 5400 c0 -5 4 -10 9 -10 6 0 13 5 16 10 3 6 -1 10 -9 10 -9 0
-16 -4 -16 -10z"/>
<path d="M3360 5371 c-20 -5 -26 -14 -28 -43 -6 -68 28 -101 121 -118 58 -11
153 2 237 32 l35 12 -40 8 c-22 4 -61 7 -87 7 -65 1 -97 15 -138 60 -38 42
-62 52 -100 42z"/>
<path d="M902 5334 c4 -43 28 -65 55 -48 51 32 40 77 -21 82 l-37 3 3 -37z"/>
<path d="M4936 5354 c-4 -10 -3 -21 2 -26 13 -13 43 2 40 21 -4 22 -34 26 -42
5z"/>
<path d="M2877 5343 c-14 -13 -6 -33 13 -33 13 0 20 7 20 20 0 19 -20 27 -33
13z"/>
<path d="M1470 5320 c0 -21 -15 -27 -25 -10 -15 24 -35 9 -35 -25 0 -19 -3
-35 -7 -35 -5 0 -18 -3 -30 -6 -19 -5 -23 -2 -23 15 0 12 -6 21 -15 21 -10 0
-15 -10 -15 -30 0 -23 -5 -30 -19 -30 -10 0 -21 -7 -25 -15 -4 -11 1 -15 19
-15 38 0 34 -43 -5 -67 -16 -9 -30 -21 -30 -26 0 -5 14 -6 30 -2 38 8 39 -8 3
-40 -26 -23 -27 -24 -7 -25 30 0 35 -9 18 -35 -14 -22 -14 -22 30 -21 38 1 45
5 54 29 8 22 16 27 45 27 21 0 41 7 52 20 10 11 23 20 30 20 11 0 17 24 43
150 4 19 5 55 2 79 -5 42 -6 44 -22 28 -21 -21 -38 -22 -38 -2 0 8 -7 15 -15
15 -8 0 -15 -9 -15 -20z m-80 -118 c0 -19 -18 -42 -32 -42 -4 0 -8 14 -8 30 0
23 4 30 20 30 13 0 20 -7 20 -18z m-10 -86 c0 -13 -29 -31 -37 -23 -2 2 -1 12
3 21 8 20 34 21 34 2z m130 -20 c0 -3 -4 -8 -10 -11 -5 -3 -10 -1 -10 4 0 6 5
11 10 11 6 0 10 -2 10 -4z m-146 -67 c-12 -13 -21 -16 -27 -10 -14 14 10 41
29 34 13 -5 12 -8 -2 -24z"/>
<path d="M657 5323 c-9 -9 -9 -51 1 -57 4 -2 29 -6 56 -7 52 -3 75 14 35 26
-12 4 -32 16 -43 26 -20 20 -38 24 -49 12z"/>
<path d="M3216 5314 c-18 -18 -20 -47 -6 -75 7 -13 21 -19 45 -19 39 0 46 8
47 52 2 50 -52 77 -86 42z"/>
<path d="M5988 5316 c-34 -25 -28 -91 10 -104 45 -16 92 15 92 61 0 44 -65 71
-102 43z"/>
<path d="M6503 5314 c-44 -16 -139 -104 -164 -152 -8 -15 -17 -29 -21 -32 -18
-14 -42 -103 -45 -172 -4 -66 -2 -78 11 -78 12 0 16 11 16 45 0 26 9 63 20 85
20 39 81 90 110 90 8 0 24 7 34 15 12 9 42 15 74 15 45 0 60 -5 92 -30 81 -65
180 -26 180 71 0 40 -5 50 -44 89 -24 24 -59 50 -78 56 -45 17 -134 16 -185
-2z"/>
<path d="M1041 5293 c-24 -9 -51 -23 -60 -32 -51 -51 -70 -234 -32 -309 25
-48 95 -113 146 -134 44 -18 127 -34 163 -30 12 2 22 -2 22 -7 0 -14 -141 -24
-181 -13 -61 17 -115 57 -136 104 -24 49 -44 69 -90 87 -43 17 -112 -8 -136
-49 -22 -36 -22 -94 0 -126 17 -27 115 -104 131 -104 5 0 24 -8 43 -17 27 -15
60 -18 164 -18 136 0 138 0 263 58 93 42 225 200 201 238 -7 11 -9 11 -9 -3 0
-21 -83 -94 -134 -119 -50 -24 -68 -25 -36 -1 43 30 140 133 140 148 0 8 4 14
9 14 10 0 24 30 17 37 -2 2 -19 -12 -38 -31 -19 -20 -39 -36 -43 -36 -5 0 -16
-7 -26 -16 -12 -11 -39 -16 -82 -17 -61 -2 -65 0 -95 33 -40 43 -51 94 -28
133 23 41 21 122 -5 158 -21 29 -87 70 -111 68 -7 0 -33 -8 -57 -16z m276
-499 c-3 -3 -12 -4 -19 -1 -8 3 -5 6 6 6 11 1 17 -2 13 -5z"/>
<path d="M2023 5285 c-11 -8 -30 -34 -42 -59 -40 -85 -137 -169 -228 -196 -71
-21 -52 -34 41 -27 137 10 268 84 307 174 25 58 24 69 -6 98 -28 29 -42 31
-72 10z"/>
<path d="M2967 5293 c-12 -12 -7 -41 8 -47 17 -6 45 2 45 14 0 32 -34 53 -53
33z"/>
<path d="M3080 5285 c-7 -8 -10 -25 -6 -40 5 -21 12 -25 41 -25 33 0 35 2 35
34 0 45 -43 64 -70 31z"/>
<path d="M4908 5289 c-23 -13 -23 -32 0 -52 27 -25 58 -1 48 36 -7 29 -20 33
-48 16z"/>
<path d="M5423 5228 c-25 -12 -38 -55 -28 -96 7 -35 54 -56 93 -41 70 27 69
112 -2 139 -32 12 -34 12 -63 -2z"/>
<path d="M3678 5188 c-10 -12 -18 -30 -18 -40 0 -49 99 -177 153 -197 27 -10
37 -31 16 -31 -17 0 -48 -43 -49 -68 0 -12 14 -41 30 -64 17 -22 30 -48 30
-57 0 -9 9 -41 19 -71 18 -52 19 -54 29 -30 23 59 42 127 42 152 0 15 6 33 13
40 37 40 51 84 52 160 0 61 -4 80 -19 97 -39 43 -119 14 -94 -34 6 -11 24 -35
39 -53 31 -35 41 -102 17 -102 -13 1 -58 34 -58 43 0 3 -17 23 -37 44 -61 65
-63 69 -63 139 0 52 -4 70 -17 80 -27 20 -66 16 -85 -8z"/>
<path d="M4933 5203 c-18 -6 -16 -53 1 -53 24 0 46 11 46 24 0 15 -32 34 -47
29z"/>
<path d="M806 5134 c-11 -44 1 -64 40 -64 27 0 37 5 46 25 9 21 8 28 -7 45
-27 30 -71 27 -79 -6z"/>
<path d="M5990 5135 c-18 -34 -3 -60 36 -60 27 0 29 3 29 40 0 35 -3 40 -26
43 -19 2 -29 -4 -39 -23z"/>
<path d="M2086 5087 c-45 -48 -76 -122 -76 -186 0 -32 3 -39 15 -35 8 4 15 13
15 22 0 19 45 78 69 91 14 8 25 4 51 -19 42 -37 79 -39 114 -4 65 66 2 174
-103 174 -39 0 -49 -5 -85 -43z"/>
<path d="M4977 5123 c-14 -13 -6 -33 13 -33 13 0 20 7 20 20 0 19 -20 27 -33
13z"/>
<path d="M5568 5109 c-12 -7 -18 -22 -18 -49 0 -34 4 -39 31 -49 44 -15 83 4
87 42 6 53 -51 85 -100 56z"/>
<path d="M1572 5058 c-7 -7 -12 -27 -12 -44 0 -37 21 -49 64 -38 21 5 26 12
26 38 0 37 -15 56 -45 56 -12 0 -26 -5 -33 -12z"/>
<path d="M6445 5050 c-3 -5 0 -10 9 -10 21 0 73 -55 80 -86 5 -20 3 -30 -8
-36 -10 -6 -16 -23 -16 -43 0 -38 20 -55 64 -55 38 0 56 25 56 78 0 47 -15 78
-55 118 -38 38 -115 58 -130 34z"/>
<path d="M4904 5019 c-12 -13 -19 -35 -19 -61 0 -34 6 -45 40 -75 22 -19 45
-37 50 -41 28 -20 197 -70 245 -73 27 -2 -38 -12 -162 -24 -91 -9 -109 -23
-110 -85 -1 -54 18 -73 72 -72 45 1 64 17 75 62 6 24 63 60 95 60 31 0 90 24
90 37 0 11 12 14 48 13 26 -1 63 -1 82 0 38 1 46 -2 -152 62 -38 12 -68 25
-68 29 0 4 -11 10 -25 13 -30 8 -110 86 -120 116 -19 59 -102 82 -141 39z"/>
<path d="M6007 5023 c-15 -14 -7 -43 12 -43 26 0 36 17 21 35 -14 16 -23 19
-33 8z"/>
<path d="M6383 4968 c-1 -75 -22 -159 -52 -208 -11 -19 -24 -42 -28 -50 -14
-32 -110 -118 -163 -147 -97 -54 -148 -65 -268 -61 -95 3 -114 7 -172 35 -36
17 -76 43 -89 57 -22 23 -51 35 -51 20 0 -25 64 -129 104 -170 86 -86 184
-124 317 -124 167 0 303 69 405 205 44 59 68 122 88 238 7 38 -12 130 -40 194
-8 17 -14 34 -14 38 0 7 -26 35 -32 35 -3 0 -5 -28 -5 -62z"/>
<path d="M594 4984 c-10 -40 6 -48 68 -34 29 7 57 15 62 18 12 7 -15 22 -41
22 -13 0 -23 5 -23 10 0 6 -13 10 -30 10 -23 0 -31 -5 -36 -26z"/>
<path d="M5692 4993 c-6 -11 -6 -25 0 -39 27 -58 95 -19 72 40 -8 22 -60 21
-72 -1z"/>
<path d="M1710 4928 c0 -7 14 -28 30 -46 17 -18 30 -37 30 -43 0 -5 3 -9 8 -9
4 0 18 -19 32 -42 31 -50 72 -71 109 -55 36 16 50 37 51 73 0 43 -28 74 -75
84 -46 9 -142 35 -167 45 -12 5 -18 2 -18 -7z"/>
<path d="M1576 4882 c-68 -166 -246 -291 -416 -292 -75 -1 -100 -16 -120 -72
-12 -32 -11 -39 6 -69 37 -64 134 -68 243 -10 42 22 192 164 218 206 43 69 84
173 90 226 3 32 4 59 2 59 -2 0 -13 -21 -23 -48z"/>
<path d="M1640 4875 c0 -73 -48 -225 -72 -225 -4 0 -8 -5 -8 -10 0 -6 -17 -27
-39 -48 -53 -51 -59 -75 -26 -108 21 -21 32 -25 58 -20 41 8 88 58 112 121 36
92 24 335 -17 335 -4 0 -8 -20 -8 -45z"/>
<path d="M2517 4902 c-50 -31 -50 -95 0 -127 28 -17 32 -26 33 -62 0 -34 -5
-46 -31 -67 -26 -22 -41 -26 -92 -26 l-60 0 23 -25 c48 -51 164 -57 213 -11
45 42 67 98 67 173 0 75 -17 111 -66 144 -36 23 -51 23 -87 1z"/>
<path d="M5792 4903 c2 -12 12 -18 28 -18 36 0 33 29 -3 33 -23 3 -28 0 -25
-15z"/>
<path d="M6016 4905 c4 -8 10 -15 15 -15 5 0 9 7 9 15 0 8 -7 15 -15 15 -9 0
-12 -6 -9 -15z"/>
<path d="M6200 4893 c0 -53 -26 -115 -69 -164 -23 -27 -49 -49 -57 -49 -7 0
-14 -4 -14 -9 0 -16 -109 -33 -166 -26 -35 4 -66 16 -93 36 -37 26 -41 27 -41
10 0 -11 7 -26 15 -35 8 -8 15 -17 15 -20 0 -9 39 -46 49 -46 5 0 14 -6 20
-14 6 -7 37 -19 69 -25 118 -25 239 33 296 142 32 62 21 227 -16 227 -5 0 -8
-12 -8 -27z"/>
<path d="M2202 4868 c-5 -7 -13 -24 -17 -38 -15 -47 -51 -63 -110 -50 -19 4
-35 4 -35 -1 0 -18 62 -39 118 -39 53 0 61 3 90 33 37 38 43 81 13 97 -26 13
-46 13 -59 -2z"/>
<path d="M5880 4846 c0 -9 7 -16 16 -16 9 0 14 5 12 12 -6 18 -28 21 -28 4z"/>
<path d="M6712 4841 c-122 -49 -173 -157 -127 -267 20 -49 30 -130 16 -138 -5
-4 -28 2 -50 14 -49 25 -70 25 -118 3 -47 -23 -65 -40 -82 -81 -25 -60 -13
-112 39 -161 67 -63 175 -50 220 26 24 41 27 128 5 157 -21 28 -19 38 6 31 23
-8 99 13 99 26 0 4 7 9 15 13 22 8 19 0 -15 -34 -16 -17 -30 -35 -30 -40 0
-12 59 -56 85 -64 11 -3 -4 -3 -32 0 -50 4 -53 3 -59 -21 -10 -39 3 -87 32
-118 33 -35 122 -77 166 -77 52 0 94 -32 119 -90 18 -41 24 -49 34 -38 36 39
45 145 19 221 -17 51 -85 117 -120 117 -27 0 -64 11 -64 19 0 3 14 12 31 20
17 7 53 37 81 65 l50 51 73 -1 73 -1 -10 28 c-5 16 -14 29 -19 29 -5 0 -9 7
-9 15 0 8 -7 15 -15 15 -8 0 -15 4 -15 9 0 5 -21 20 -47 33 -36 17 -64 23
-114 22 -68 0 -76 -3 -134 -60 l-31 -32 0 102 c1 116 9 135 68 172 l41 26 -24
14 c-33 18 -106 16 -157 -5z m38 -70 c0 -6 -4 -12 -9 -15 -27 -17 -51 -90 -51
-156 0 -38 -5 -81 -12 -97 l-12 -28 -4 34 c-2 18 1 38 7 44 6 6 8 29 4 54 -7
50 11 116 41 151 20 23 36 29 36 13z m260 -245 c-25 -7 -62 -20 -82 -29 -43
-18 -56 -11 -25 13 24 19 57 27 117 28 34 0 34 0 -10 -12z m-182 -282 c86 -23
128 -45 151 -79 29 -42 26 -51 -5 -22 -34 32 -144 87 -172 87 -12 0 -22 4 -22
9 0 5 -8 12 -17 14 -10 3 -12 5 -5 6 8 0 39 -6 70 -15z"/>
<path d="M2353 4840 c-25 -10 -36 -38 -28 -72 11 -48 -43 -83 -107 -68 -57 13
-68 12 -63 -2 6 -15 101 -48 138 -48 30 0 94 28 118 51 38 38 35 119 -7 138
-14 6 -26 11 -27 10 -1 0 -12 -4 -24 -9z"/>
<path d="M4142 4823 c-35 -17 -132 -105 -132 -120 0 -4 -10 -19 -23 -33 -50
-55 -103 -179 -122 -285 -16 -89 -9 -109 19 -53 11 24 27 49 34 56 6 7 12 17
12 21 0 12 131 145 160 162 27 17 100 44 140 53 14 3 40 19 58 35 27 25 32 37
32 75 0 37 -6 51 -30 76 -24 24 -37 30 -72 30 -24 0 -58 -8 -76 -17z"/>
<path d="M6005 4809 c-4 -12 -2 -26 4 -32 7 -7 7 -14 0 -24 -16 -18 -29 -16
-57 10 l-25 22 7 -34 c7 -39 30 -60 67 -61 30 0 76 41 85 77 13 49 -66 90 -81
42z"/>
<path d="M4640 4806 c-25 -7 -52 -15 -60 -19 -8 -3 -26 -11 -40 -17 -26 -10
-56 -28 -76 -45 -7 -5 -44 -32 -83 -59 -39 -28 -69 -51 -68 -53 2 -1 29 2 61
7 64 10 137 4 176 -15 69 -34 105 -45 149 -45 54 0 87 22 115 78 31 60 -11
145 -83 170 -19 7 -37 11 -40 11 -3 -1 -26 -7 -51 -13z"/>
<path d="M3057 4703 c52 -68 57 -125 15 -176 -7 -9 -12 -31 -10 -49 4 -39 41
-58 85 -42 22 7 29 18 36 53 16 82 2 125 -63 191 -67 69 -111 85 -63 23z"/>
<path d="M5410 4734 c-175 -25 -266 -92 -284 -210 -7 -48 7 -137 23 -142 6 -2
11 -10 11 -17 0 -18 51 -28 100 -20 54 9 80 51 80 130 0 54 2 60 39 95 88 84
213 108 292 55 51 -33 69 -23 26 16 -42 39 -97 65 -172 79 -33 6 -67 13 -75
14 -8 2 -26 1 -40 0z"/>
<path d="M545 4718 c-48 -18 -64 -46 -65 -110 0 -50 4 -61 29 -87 103 -106
269 28 191 154 -31 50 -91 66 -155 43z"/>
<path d="M3585 4710 c-64 -32 -90 -98 -66 -163 11 -28 60 -77 77 -77 12 0 53
-43 79 -85 37 -58 20 -284 -31 -428 -8 -20 -14 -47 -14 -59 0 -19 2 -20 14 -8
7 8 27 40 43 70 17 30 36 66 44 80 49 90 109 307 109 394 0 103 -55 229 -120
274 -41 27 -83 28 -135 2z"/>
<path d="M3167 4701 c12 -11 25 -21 28 -21 12 0 56 -42 95 -90 21 -26 31 -30
60 -28 33 3 35 6 38 41 3 36 1 38 -43 57 -26 11 -52 20 -58 20 -7 0 -25 7 -40
15 -15 8 -45 17 -65 21 l-37 6 22 -21z"/>
<path d="M2745 4691 c-29 -12 -39 -28 -58 -93 l-18 -57 -57 -16 c-48 -14 -66
-15 -112 -5 -67 14 -162 43 -212 64 -56 24 -77 21 -42 -6 16 -12 31 -25 34
-28 13 -14 70 -50 80 -50 5 0 10 -3 10 -8 0 -4 33 -24 73 -44 138 -69 144 -70
226 -67 67 4 83 8 115 33 21 15 51 46 67 69 25 35 29 49 29 107 0 53 -4 70
-19 84 -23 20 -87 30 -116 17z"/>
<path d="M2112 4632 c29 -31 63 -70 76 -87 12 -16 51 -68 85 -115 107 -143
189 -207 355 -276 68 -28 221 -25 287 6 62 28 92 60 101 105 18 96 -113 171
-184 105 -40 -38 -150 -36 -291 4 -67 19 -221 96 -228 113 -3 7 -9 13 -13 13
-4 0 -42 33 -84 74 -42 41 -85 78 -96 81 -11 4 -20 10 -20 15 0 4 -9 10 -21
13 -15 4 -5 -11 33 -51z"/>
<path d="M1980 4669 c0 -5 7 -12 15 -15 8 -4 15 -10 15 -15 0 -4 11 -20 25
-35 14 -15 28 -38 31 -51 4 -13 10 -23 15 -23 5 0 9 -6 9 -12 0 -7 7 -26 16
-43 22 -41 44 -165 43 -250 0 -82 -21 -225 -41 -275 -24 -59 -51 -110 -60
-110 -4 0 -8 -5 -8 -11 0 -11 -76 -88 -147 -149 -57 -49 -73 -104 -48 -160 28
-61 82 -100 140 -100 61 0 94 20 181 105 96 95 135 181 159 350 17 113 15 165
-10 280 -27 122 -85 250 -157 346 -16 20 -28 39 -28 42 0 10 -100 107 -110
107 -6 0 -10 4 -10 9 0 5 -7 11 -15 15 -8 3 -15 1 -15 -5z"/>
<path d="M1810 4617 c-94 -88 -94 -187 -1 -270 26 -23 40 -27 90 -27 40 0 65
5 75 15 8 8 19 15 25 15 6 0 11 5 11 11 0 6 7 17 15 25 26 26 19 82 -14 115
-33 32 -89 40 -113 15 -25 -25 -58 -29 -79 -10 -10 9 -19 24 -19 33 0 28 45
73 91 92 l44 18 -45 0 c-37 1 -51 -5 -80 -32z"/>
<path d="M5478 4570 c-9 -10 -19 -29 -23 -42 -4 -12 -12 -29 -17 -36 -6 -6
-11 -47 -12 -90 -1 -67 2 -82 22 -107 50 -64 107 -81 163 -48 83 49 46 159
-53 155 -50 -2 -68 24 -68 100 0 31 5 60 10 63 12 7 14 25 3 24 -5 0 -15 -9
-25 -19z"/>
<path d="M855 4543 c-57 -23 -122 -78 -145 -123 -22 -44 -26 -116 -8 -155 6
-14 9 -27 6 -30 -3 -3 -29 6 -58 21 -29 14 -69 28 -89 31 -20 3 -45 13 -56 22
-28 24 -55 75 -55 105 0 42 -26 30 -49 -23 -25 -58 -28 -164 -7 -214 26 -64
100 -117 161 -117 42 0 35 -13 -16 -31 -28 -10 -68 -31 -88 -46 -29 -23 -46
-28 -88 -27 -34 0 -58 6 -71 17 -40 36 -53 15 -27 -46 19 -47 60 -94 109 -125
35 -22 52 -26 112 -26 80 1 78 0 169 92 35 34 70 62 79 62 9 0 17 6 17 13 4
40 -15 66 -64 91 -29 14 -29 16 -9 16 13 0 32 -5 42 -10 24 -13 50 20 51 65
l1 30 14 -32 c23 -54 80 -40 123 31 17 27 21 49 21 112 -1 50 -6 88 -15 104
-30 52 -13 146 32 173 7 4 13 15 13 22 0 20 -53 19 -105 -2z m-24 -142 c-6
-11 -11 -41 -11 -68 -1 -39 -3 -45 -11 -29 -13 22 -3 114 14 135 10 12 12 12
15 -2 2 -9 -2 -25 -7 -36z m-339 -165 c18 -18 49 -43 68 -55 l35 -22 -30 7
c-38 9 -74 36 -97 74 -23 39 -17 38 24 -4z m173 -96 c25 -11 -1 -11 -35 0 -20
6 -21 8 -5 8 11 0 29 -3 40 -8z m33 -177 c-10 -2 -26 -2 -35 0 -10 3 -2 5 17
5 19 0 27 -2 18 -5z m-114 -41 c-52 -48 -145 -66 -198 -38 -25 13 -21 14 58
18 46 2 90 9 98 15 7 6 22 13 33 16 11 2 22 5 24 6 3 0 -4 -7 -15 -17z"/>
<path d="M4288 4511 c-134 -37 -219 -90 -350 -222 -54 -54 -98 -101 -98 -105
0 -3 -13 -23 -30 -44 -16 -21 -30 -43 -30 -49 0 -6 -4 -11 -8 -11 -29 0 -83
-213 -64 -252 8 -18 11 -19 11 -5 1 9 5 17 10 17 4 0 21 19 36 42 15 23 62 75
104 117 146 144 331 203 482 154 41 -13 68 -32 114 -79 59 -60 71 -82 109
-204 23 -71 59 -150 68 -150 5 0 8 -4 8 -9 0 -14 61 -77 87 -90 31 -16 104
-14 146 4 41 17 115 86 138 130 9 17 24 70 34 118 19 97 12 166 -25 277 -20
58 -86 170 -101 170 -5 0 -9 7 -9 15 0 8 -7 15 -15 15 -8 0 -15 7 -15 15 0 8
-7 15 -15 15 -8 0 -15 4 -15 9 0 12 -94 71 -140 89 -138 53 -309 66 -432 33z"/>
<path d="M3359 4507 c-14 -7 -33 -18 -43 -26 -23 -20 -20 -73 7 -104 21 -25
29 -27 95 -27 76 0 100 -9 155 -59 l27 -25 0 32 c0 88 -128 227 -204 221 -6 0
-23 -6 -37 -12z"/>
<path d="M2270 4361 c5 -11 31 -51 57 -88 61 -89 91 -150 114 -231 24 -84 26
-228 3 -298 -21 -67 -57 -144 -66 -144 -5 0 -8 -6 -8 -13 0 -7 -21 -37 -47
-67 -47 -52 -48 -56 -48 -118 0 -57 3 -66 28 -88 15 -13 46 -28 68 -34 34 -10
46 -8 77 8 31 15 45 35 83 113 57 116 74 169 89 282 18 130 1 233 -58 357 -9
19 -20 38 -25 41 -4 3 -18 20 -31 38 -13 18 -63 72 -110 121 -47 49 -86 91
-86 94 0 8 -38 46 -45 46 -3 0 -1 -9 5 -19z"/>
<path d="M1171 4323 c-33 -6 -85 -60 -99 -102 -23 -65 -9 -173 31 -247 9 -18
35 -48 59 -68 40 -34 45 -36 117 -36 80 0 93 5 161 63 18 15 31 30 28 32 -2 3
-22 0 -43 -6 -90 -25 -173 11 -198 85 -17 52 -7 87 31 104 70 30 67 133 -3
167 -33 15 -41 16 -84 8z"/>
<path d="M5161 4295 c-32 -15 -33 -16 -27 -62 17 -137 18 -165 7 -176 -13 -13
-15 -57 -3 -57 12 0 76 61 94 90 20 33 48 118 48 146 0 29 -29 62 -60 68 -14
3 -40 -1 -59 -9z"/>
<path d="M1578 4289 c-12 -6 -18 -22 -18 -45 0 -28 8 -42 38 -70 51 -47 99
-61 166 -47 55 12 126 48 126 65 0 6 -9 7 -22 3 -13 -4 -47 -9 -76 -12 -48 -5
-56 -3 -83 23 -16 15 -29 38 -29 51 0 37 -61 56 -102 32z"/>
<path d="M3265 4265 c-68 -33 -85 -58 -85 -125 0 -47 5 -61 29 -90 26 -32 33
-35 81 -34 35 0 57 6 64 16 6 8 22 22 36 31 22 14 30 14 65 2 22 -8 45 -21 51
-30 6 -8 15 -15 20 -15 17 -1 44 -71 44 -115 0 -67 25 -60 41 10 31 139 -51
300 -179 356 -58 25 -107 23 -167 -6z"/>
<path d="M1408 4243 c-75 -47 -58 -148 35 -208 48 -30 167 -26 239 8 69 33 84
51 36 42 -18 -3 -53 -9 -78 -14 -50 -8 -98 3 -117 28 -7 9 -13 38 -13 64 0 39
-5 53 -26 72 -31 29 -40 30 -76 8z"/>
<path d="M6106 4239 c-54 -29 -70 -47 -90 -100 -17 -45 -17 -46 12 -135 41
-125 52 -176 52 -237 0 -57 -20 -160 -43 -222 -35 -92 -131 -260 -176 -306 -9
-9 -25 -27 -37 -40 -57 -66 -184 -144 -269 -165 -16 -4 -40 -13 -54 -20 -26
-14 -26 -14 -3 -14 37 0 174 29 217 47 50 20 234 109 259 126 91 59 266 234
266 266 0 6 4 11 8 11 13 0 100 180 123 256 31 97 31 273 1 359 -40 116 -67
151 -134 180 -49 20 -85 18 -132 -6z"/>
<path d="M5639 4147 c-34 -29 -49 -58 -49 -97 0 -17 5 -41 11 -53 15 -28 59
-66 79 -67 36 -2 96 -48 117 -91 31 -62 32 -253 3 -394 -20 -92 -72 -226 -91
-233 -11 -4 -12 -32 -2 -32 20 0 103 107 137 176 21 43 43 87 47 96 13 26 46
134 63 210 42 180 -3 372 -107 449 -86 63 -160 77 -208 36z"/>
<path d="M6600 4124 c-14 -9 -34 -28 -45 -42 -19 -25 -20 -40 -17 -202 3 -156
1 -181 -17 -234 -30 -85 -54 -136 -63 -136 -4 0 -8 -5 -8 -10 0 -18 -69 -109
-109 -144 -13 -12 -31 -28 -40 -37 -21 -21 -167 -109 -181 -109 -6 0 -18 -4
-28 -9 -9 -6 -47 -23 -84 -40 -98 -44 -96 -63 2 -23 34 13 120 38 205 58 186
44 267 84 365 184 41 41 80 84 87 95 91 148 143 321 146 485 2 97 0 107 -20
128 -13 12 -27 22 -32 22 -5 0 -11 5 -13 12 -7 19 -119 21 -148 2z"/>
<path d="M2602 4114 c-27 -19 -28 -45 -2 -69 17 -15 24 -16 45 -7 30 14 34 58
8 78 -23 17 -24 17 -51 -2z"/>
<path d="M1836 4062 c-50 -28 -67 -43 -186 -160 -115 -112 -202 -182 -227
-182 -7 0 -13 -4 -13 -9 0 -5 -12 -12 -27 -16 -15 -3 -30 -10 -33 -14 -8 -12
-207 -77 -277 -91 -76 -15 -116 -10 -191 26 -68 33 -105 35 -157 8 -55 -29
-78 -75 -70 -143 5 -45 11 -60 38 -84 74 -66 212 -98 336 -78 166 26 312 110
453 259 36 39 79 92 94 119 16 26 32 50 36 51 4 2 8 8 8 14 0 6 14 27 30 48
17 21 30 43 30 49 0 6 3 11 8 11 4 0 20 20 35 45 16 25 33 45 38 45 5 0 9 4 9
10 0 12 67 80 79 80 5 0 11 7 15 15 3 8 4 15 3 14 -1 0 -15 -8 -31 -17z"/>
<path d="M1956 4065 c-8 -8 -17 -15 -21 -15 -7 0 -135 -128 -135 -136 0 -3 -8
-14 -18 -25 -11 -10 -25 -32 -33 -47 -8 -15 -17 -29 -20 -32 -7 -6 -19 -30
-70 -132 -60 -124 -85 -205 -106 -348 -13 -89 -13 -124 -3 -225 11 -115 38
-242 58 -281 5 -11 19 -39 31 -64 51 -106 126 -191 234 -264 129 -89 282 -48
321 85 23 77 7 139 -51 195 -25 24 -50 44 -56 44 -28 0 -197 167 -197 195 0 3
-11 23 -25 45 -33 52 -52 106 -76 214 -24 113 -27 387 -4 451 8 22 15 47 15
55 0 27 98 210 113 210 4 0 7 4 7 10 0 5 14 23 30 40 28 29 35 40 26 40 -3 0
-11 -7 -20 -15z"/>
<path d="M3000 4059 c-19 -10 -47 -34 -62 -51 -24 -29 -27 -42 -28 -100 0 -66
0 -67 46 -112 45 -45 47 -46 110 -46 55 0 71 4 100 27 32 24 74 95 74 125 0
65 -50 137 -112 162 -49 21 -85 19 -128 -5z"/>
<path d="M873 4034 c-58 -29 -68 -49 -67 -128 1 -117 56 -197 174 -252 95 -45
215 -21 390 77 107 60 292 210 277 225 -3 3 -43 -12 -89 -34 -182 -89 -355
-123 -439 -88 -37 15 -69 61 -69 96 0 77 -107 139 -177 104z"/>
<path d="M2711 4024 c-30 -38 -35 -63 -20 -106 28 -86 151 -91 193 -8 18 38 6
84 -32 118 -38 33 -113 31 -141 -4z"/>
<path d="M4063 3967 c-52 -6 -73 -13 -73 -23 0 -8 9 -14 20 -14 51 0 163 -74
213 -142 49 -66 63 -97 77 -175 15 -82 4 -166 -32 -241 -23 -48 -111 -149
-142 -163 -12 -5 -28 -13 -36 -18 -57 -34 -100 -43 -196 -39 -84 3 -107 7
-151 30 -29 15 -53 22 -53 17 0 -25 82 -118 145 -164 95 -71 174 -95 303 -94
119 0 172 14 264 67 54 31 158 125 158 142 0 5 6 15 13 22 14 15 38 64 62 128
27 70 25 237 -4 320 -13 36 -26 67 -29 70 -4 3 -15 21 -25 40 -33 66 -148 169
-217 196 -8 3 -31 12 -50 20 -52 21 -166 30 -247 21z"/>
<path d="M3358 3951 c-63 -13 -90 -78 -49 -115 22 -20 47 -16 80 13 26 22 47
18 86 -15 33 -28 39 -26 31 13 -14 63 -90 116 -148 104z"/>
<path d="M5145 3912 l-30 -17 44 -3 c85 -6 126 -64 96 -135 -8 -20 -20 -37
-25 -37 -6 0 -10 -7 -10 -15 0 -8 -6 -15 -14 -15 -7 0 -19 -7 -26 -15 -10 -13
-9 -15 11 -15 13 0 43 -9 65 -19 73 -33 80 -115 16 -168 -15 -12 -35 -22 -44
-23 -24 0 -23 -30 0 -30 23 0 82 -54 83 -77 4 -66 -31 -115 -93 -128 -35 -8
-35 -14 0 -45 39 -34 53 -78 37 -116 -19 -45 -41 -58 -101 -58 -30 0 -54 -2
-54 -4 0 -2 12 -20 28 -39 20 -27 27 -48 27 -81 0 -27 -5 -47 -12 -49 -7 -3
-13 -11 -13 -18 0 -18 -59 -29 -110 -21 -31 5 -40 3 -40 -8 0 -8 5 -18 10 -21
21 -13 0 -145 -22 -145 -5 0 -16 -7 -24 -15 -9 -8 -33 -15 -54 -15 -21 0 -45
7 -54 15 -8 8 -19 15 -24 15 -6 0 -13 6 -16 13 -3 6 -3 -9 0 -35 4 -35 0 -58
-15 -91 -23 -51 -33 -60 -82 -77 -30 -11 -40 -10 -70 5 -18 10 -42 27 -51 38
-18 20 -18 20 -18 -6 0 -16 15 -41 45 -71 38 -40 50 -46 86 -46 81 0 145 80
137 171 -4 40 -3 46 11 41 9 -3 22 -12 29 -19 7 -7 35 -13 61 -13 39 0 52 5
79 31 28 28 32 38 32 85 0 29 -4 64 -9 77 l-10 25 65 -6 c54 -4 68 -2 85 14
54 49 59 102 13 169 -27 40 -26 41 49 48 56 5 84 27 93 73 8 43 -1 69 -43 115
l-35 38 47 12 c99 25 124 120 49 187 -21 17 -43 32 -51 32 -24 0 -13 21 17 31
17 6 30 15 30 20 0 5 6 9 13 9 7 0 20 19 29 43 26 71 -6 122 -91 146 l-44 13
30 26 c35 31 63 81 63 112 0 84 -115 138 -195 92z"/>
<path d="M5545 3905 c-14 -13 -25 -30 -25 -37 0 -16 -65 -88 -79 -88 -6 0 -11
-4 -11 -9 0 -5 -13 -14 -30 -20 -16 -5 -30 -15 -30 -20 0 -30 137 7 213 57 52
33 57 40 57 77 0 23 -7 35 -29 48 -37 22 -37 22 -66 -8z"/>
<path d="M2686 3862 c-3 -4 6 -41 20 -82 18 -56 24 -96 24 -163 l0 -88 -45
-45 c-59 -58 -62 -97 -10 -149 49 -48 98 -49 142 -2 58 62 63 75 63 169 0 48
-4 89 -9 92 -5 3 -12 18 -16 33 -7 29 -101 176 -116 181 -5 2 -9 8 -9 13 0 14
-39 49 -44 41z"/>
<path d="M3820 3858 c-25 -10 -24 -10 19 -29 84 -37 151 -134 151 -218 0 -71
-43 -154 -105 -202 -12 -10 -48 -25 -79 -33 -49 -13 -63 -13 -111 0 -66 17
-65 17 -65 4 0 -12 68 -80 80 -80 6 0 10 -4 10 -9 0 -16 112 -51 165 -51 167
0 315 148 315 315 0 49 -36 165 -51 165 -5 0 -9 4 -9 10 0 12 -60 71 -90 89
-73 43 -178 61 -230 39z"/>
<path d="M5113 3823 c-7 -2 -13 -10 -13 -17 0 -7 -14 -31 -30 -53 -17 -23 -27
-44 -23 -46 14 -9 112 18 129 35 20 20 22 67 3 79 -15 9 -46 11 -66 2z"/>
<path d="M6893 3814 c-52 -22 -52 -37 0 -29 58 9 84 0 102 -35 27 -52 18 -82
-42 -153 -44 -50 -43 -61 5 -51 43 9 69 9 117 0 29 -6 36 -13 46 -44 9 -33 8
-42 -10 -74 -20 -34 -70 -74 -116 -93 -15 -6 -3 -12 55 -24 92 -20 114 -32
130 -71 10 -24 10 -36 0 -60 -7 -16 -18 -30 -25 -30 -8 0 -15 -5 -17 -12 -3
-7 -35 -14 -78 -17 -78 -6 -98 -21 -53 -40 31 -13 73 -78 73 -114 0 -49 -54
-87 -125 -87 -28 0 -56 5 -62 11 -6 6 -16 8 -22 4 -8 -4 -3 -17 14 -37 35 -41
41 -73 21 -116 -27 -58 -60 -77 -131 -75 l-60 1 35 -29 c41 -35 66 -36 121 -7
69 36 107 124 75 173 -9 13 -16 28 -16 32 0 5 30 8 68 8 56 0 71 4 89 22 45
45 42 121 -7 169 -16 16 -30 32 -30 35 0 4 31 9 69 11 77 6 101 22 121 82 26
81 -8 132 -98 145 -57 8 -63 23 -19 48 40 24 80 94 71 127 -3 13 -19 38 -35
55 -24 27 -39 33 -84 38 -31 3 -54 9 -53 13 2 4 16 31 32 61 35 66 31 96 -19
146 -26 26 -41 33 -71 32 -22 0 -53 -7 -71 -15z"/>
<path d="M3665 3753 c-30 -7 -73 -58 -86 -102 -21 -72 26 -153 105 -180 52
-18 113 0 157 45 63 65 47 184 -32 226 -32 17 -97 22 -144 11z"/>
<path d="M3250 3731 c-50 -94 119 -154 183 -66 l18 25 -43 0 c-37 0 -45 4 -60
30 -14 24 -24 30 -52 30 -25 0 -38 -6 -46 -19z"/>
<path d="M6834 3695 c-13 -13 -24 -33 -24 -43 0 -26 31 -52 62 -52 49 0 76 61
41 92 -33 28 -53 29 -79 3z"/>
<path d="M1621 3703 c-1 -18 -146 -209 -195 -256 -53 -51 -166 -203 -166 -223
0 -8 -4 -14 -10 -14 -5 0 -13 -12 -16 -27 -4 -16 -13 -37 -19 -48 -7 -11 -20
-67 -29 -125 -17 -107 -16 -135 13 -300 25 -136 124 -359 188 -424 60 -60 161
-60 229 1 39 34 39 34 39 112 l0 77 -75 87 c-66 76 -118 151 -136 197 -64 163
-79 294 -48 433 23 109 78 236 147 341 55 83 90 152 84 168 -4 8 -6 9 -6 1z"/>
<path d="M3017 3669 c-28 -15 -44 -33 -59 -67 -20 -45 -21 -48 -4 -96 21 -56
64 -108 111 -130 50 -24 181 -21 236 4 72 33 119 69 119 90 0 6 4 10 9 10 12
0 57 88 49 96 -3 3 -21 -8 -39 -24 -72 -62 -143 -78 -207 -46 -31 15 -52 59
-52 107 0 11 -14 32 -31 48 -37 35 -77 37 -132 8z"/>
<path d="M525 3603 c-44 -11 -104 -96 -105 -148 0 -38 44 -109 78 -127 49 -24
49 -26 1 -48 -56 -25 -71 -38 -87 -73 -39 -89 20 -177 119 -177 l44 0 -41 19
c-84 38 -97 102 -35 172 28 32 51 48 85 57 46 12 55 32 15 32 -33 0 -79 29
-99 63 -47 77 -2 181 91 209 39 11 41 13 18 19 -28 8 -56 9 -84 2z"/>
<path d="M5005 3601 c-51 -19 -85 -36 -85 -43 0 -4 -5 -8 -11 -8 -7 0 -28 -10
-48 -22 l-36 -23 80 -7 c44 -3 105 -9 135 -13 53 -7 55 -6 73 23 22 39 22 53
-3 80 -21 22 -64 28 -105 13z"/>
<path d="M5571 3544 c-12 -15 -21 -31 -21 -36 0 -12 -87 -50 -132 -57 -56 -9
-34 -28 49 -43 126 -21 233 20 233 91 0 65 -89 96 -129 45z"/>
<path d="M6750 3532 c0 -7 7 -15 15 -18 8 -4 15 -17 15 -30 0 -14 7 -27 15
-30 9 -4 15 -19 15 -35 0 -16 5 -29 11 -29 6 0 8 7 5 16 -3 9 -9 34 -12 55 -4
26 -14 44 -28 51 -11 6 -24 16 -28 22 -5 8 -8 7 -8 -2z"/>
<path d="M3464 3469 c-6 -8 -19 -32 -30 -54 -11 -22 -32 -59 -47 -82 -15 -24
-27 -45 -27 -48 0 -8 -44 -69 -52 -73 -5 -2 -8 -9 -8 -15 0 -18 -88 -96 -127
-112 -41 -17 -94 -19 -142 -5 -27 7 -43 6 -75 -9 -64 -29 -81 -53 -81 -122 0
-55 3 -62 37 -96 36 -35 41 -37 97 -36 99 3 204 62 279 158 27 34 28 23 2 -30
-11 -22 -19 -44 -20 -48 0 -5 -6 -23 -14 -40 -43 -95 -58 -274 -31 -363 21
-72 54 -99 118 -98 45 0 54 4 79 34 30 36 39 105 17 127 -32 32 -69 118 -81
188 -12 73 -3 228 17 285 l15 42 -23 -14 c-12 -9 -28 -26 -34 -39 -7 -14 -13
-18 -13 -9 0 8 23 59 50 113 28 55 50 105 50 112 0 7 7 26 15 41 8 16 15 38
15 50 0 11 7 41 16 67 18 52 17 100 -2 76z"/>
<path d="M3536 3446 c-14 -19 -26 -39 -26 -45 0 -6 -4 -11 -9 -11 -5 0 -13
-10 -16 -22 -4 -13 -12 -36 -20 -53 -28 -62 -40 -152 -40 -300 0 -149 11 -228
42 -310 24 -61 57 -125 65 -125 5 0 8 -5 8 -11 0 -10 43 -60 117 -136 18 -18
39 -33 47 -33 7 0 16 -6 19 -12 5 -14 103 -65 175 -92 30 -11 76 -16 155 -16
95 0 125 4 187 26 41 14 83 28 93 31 9 3 17 9 17 13 0 5 9 12 20 15 25 8 147
127 161 157 5 13 21 43 34 68 31 59 34 171 6 233 -32 70 -83 107 -150 107 -51
0 -140 -20 -166 -37 -11 -7 -27 -13 -36 -13 -10 0 -19 -3 -21 -7 -10 -25 -112
-76 -181 -92 -59 -14 -90 -13 -147 2 -102 29 -182 99 -236 209 -58 116 -66
161 -62 333 1 85 0 155 -3 155 -4 0 -18 -15 -33 -34z"/>
<path d="M6926 3455 c-10 -40 10 -67 46 -63 37 4 53 26 44 61 -5 23 -12 27
-45 27 -33 0 -40 -4 -45 -25z"/>
<path d="M548 3426 c-25 -56 64 -94 92 -40 19 35 3 58 -43 62 -31 3 -39 -1
-49 -22z"/>
<path d="M6691 3423 c-1 -23 3 -33 14 -33 8 0 15 5 15 10 0 6 -4 10 -9 10 -5
0 -12 10 -14 23 -3 16 -5 13 -6 -10z"/>
<path d="M4854 3396 c-41 -7 -59 -15 -57 -23 3 -7 13 -13 24 -13 19 0 141 -56
194 -90 72 -45 149 -10 143 66 -3 33 -8 41 -38 56 -41 20 -168 22 -266 4z"/>
<path d="M6833 3335 c0 -22 2 -30 4 -17 2 12 2 30 0 40 -3 9 -5 -1 -4 -23z"/>
<path d="M1917 3338 c-39 -35 -51 -74 -36 -126 16 -58 58 -92 114 -92 110 0
163 134 84 211 -25 25 -38 29 -83 29 -40 0 -59 -5 -79 -22z"/>
<path d="M2930 3334 c-16 -5 -40 -49 -40 -73 0 -9 6 -23 13 -32 15 -19 89 -49
122 -49 61 0 214 79 215 111 0 4 -33 7 -73 7 -49 0 -84 5 -105 16 -33 17 -106
28 -132 20z"/>
<path d="M1190 3303 c-15 -5 -141 -64 -149 -70 -11 -8 9 -14 21 -7 27 18 77
31 89 24 17 -11 -18 -56 -53 -69 -16 -6 -28 -15 -28 -20 0 -17 9 -13 50 19 40
32 60 38 60 18 0 -19 -44 -78 -57 -78 -18 0 -16 -17 2 -28 14 -7 13 -14 -5
-56 -12 -26 -19 -52 -17 -59 2 -7 7 3 11 21 4 17 12 32 17 32 5 0 9 5 9 11 0
6 9 23 21 37 12 16 18 34 15 48 -4 15 3 30 24 50 16 16 30 33 30 37 0 4 -16
15 -36 23 -42 18 -40 31 6 56 32 17 26 24 -10 11z"/>
<path d="M6570 3300 c0 -6 7 -10 15 -10 8 0 15 2 15 4 0 2 -7 6 -15 10 -8 3
-15 1 -15 -4z"/>
<path d="M6832 3283 c-1 -8 -19 -14 -44 -14 l-43 -2 40 -6 c32 -5 41 -11 43
-28 2 -13 -1 -23 -7 -23 -6 0 -11 -13 -11 -30 0 -16 -4 -30 -10 -30 -5 0 -10
-7 -10 -16 0 -9 -10 -34 -22 -55 -21 -37 -22 -38 -50 -23 -28 15 -36 42 -18
60 14 14 29 103 19 110 -5 3 -9 -6 -9 -20 0 -14 -4 -26 -10 -26 -5 0 -10 -6
-10 -14 0 -24 -34 -76 -49 -76 -21 0 19 -29 40 -30 9 0 26 -9 39 -20 13 -11
26 -20 29 -20 13 0 71 109 71 133 0 14 5 27 11 29 6 2 9 25 6 58 -2 30 -4 49
-5 43z"/>
<path d="M6716 3271 c-4 -5 -2 -12 3 -15 5 -4 12 -2 15 3 4 5 2 12 -3 15 -5 4
-12 2 -15 -3z"/>
<path d="M810 3195 c0 -56 4 -81 15 -92 14 -14 15 -8 10 61 l-6 76 46 0 c46 0
47 -1 42 -27 -3 -15 -1 -34 3 -42 4 -9 16 -33 26 -53 10 -20 22 -34 27 -31 5
3 5 8 -1 12 -5 3 -13 29 -17 56 -4 28 -11 58 -16 67 -7 12 -3 21 13 32 22 16
22 16 -8 16 -17 0 -45 -5 -62 -11 -22 -7 -36 -7 -51 1 -20 10 -21 8 -21 -65z"/>
<path d="M4790 3255 c0 -7 6 -16 13 -19 6 -3 26 -15 42 -26 17 -11 40 -24 53
-30 12 -5 22 -13 22 -17 0 -5 18 -27 40 -50 28 -31 47 -43 67 -43 35 1 60 19
68 51 14 56 -59 98 -227 131 -61 12 -78 12 -78 3z"/>
<path d="M6476 3262 c-3 -5 -2 -18 1 -30 6 -25 33 -30 33 -7 0 8 -4 15 -10 15
-5 0 -7 7 -4 15 6 16 -11 21 -20 7z"/>
<path d="M6978 3246 c-35 -27 -12 -85 34 -86 35 0 60 46 40 77 -12 19 -55 24
-74 9z"/>
<path d="M2490 3244 c-77 -15 -147 -53 -205 -109 -49 -48 -62 -72 -85 -163
-17 -68 25 -122 95 -122 53 0 76 29 85 109 4 36 12 78 18 92 15 38 66 85 120
110 26 12 56 26 67 32 11 6 52 13 90 16 66 6 69 7 45 20 -25 14 -182 24 -230
15z"/>
<path d="M574 3185 c-22 -33 -7 -77 30 -90 24 -8 31 -6 47 14 10 13 19 34 19
46 0 54 -67 75 -96 30z"/>
<path d="M5527 3193 c-13 -13 -35 -17 -92 -17 -41 0 -75 -3 -75 -7 0 -24 138
-79 196 -79 64 0 96 55 60 103 -17 22 -67 22 -89 0z"/>
<path d="M6445 3180 c17 -4 50 -8 75 -8 40 0 42 1 15 8 -16 4 -50 8 -75 8 -40
0 -42 -1 -15 -8z"/>
<path d="M6578 3153 c7 -3 16 -2 19 1 4 3 -2 6 -13 5 -11 0 -14 -3 -6 -6z"/>
<path d="M2825 3139 c-10 -14 24 -49 41 -42 8 3 14 16 14 29 0 19 -5 24 -24
24 -14 0 -28 -5 -31 -11z"/>
<path d="M4737 3137 c4 -7 32 -42 60 -78 29 -35 65 -89 80 -119 28 -54 29 -55
76 -58 44 -3 48 -1 58 25 19 51 4 85 -54 123 -49 32 -212 120 -223 120 -3 0
-1 -6 3 -13z"/>
<path d="M6215 3145 c-5 -1 -44 -8 -85 -15 -67 -11 -206 -55 -252 -81 -29 -15
-220 -79 -238 -79 -10 0 -31 -7 -46 -15 l-29 -15 40 0 c39 0 136 16 283 47
105 22 233 10 377 -34 83 -26 155 -56 155 -65 0 -4 6 -8 14 -8 19 0 58 -48 86
-104 12 -25 28 -46 35 -46 7 0 15 -5 17 -11 2 -6 24 -13 48 -16 57 -6 106 25
134 82 17 37 17 42 2 91 -9 28 -27 63 -41 78 -14 15 -25 31 -25 37 0 5 -3 9
-7 9 -5 0 -23 14 -42 30 -18 17 -37 30 -42 30 -4 0 -14 6 -21 13 -44 41 -299
92 -363 72z"/>
<path d="M2685 3100 c-14 -16 -17 -25 -9 -37 32 -50 79 -39 79 18 0 29 -4 34
-26 37 -16 2 -32 -5 -44 -18z"/>
<path d="M840 3054 c0 -8 7 -22 15 -30 13 -14 15 -13 15 9 0 14 -7 27 -15 31
-9 3 -15 0 -15 -10z"/>
<path d="M6918 3039 c-28 -16 -24 -73 7 -89 22 -12 27 -11 45 5 26 23 26 71 1
85 -24 12 -31 12 -53 -1z"/>
<path d="M588 3022 c-7 -9 -30 -26 -51 -37 -77 -39 -109 -107 -87 -182 17 -62
33 -76 93 -81 40 -3 65 1 98 16 47 22 61 13 41 -25 -20 -37 -24 -100 -9 -130
28 -54 53 -68 121 -67 53 0 69 5 99 28 l37 28 0 -67 c0 -76 19 -113 72 -139
83 -42 178 14 202 117 7 29 7 29 -25 -8 -61 -70 -109 -76 -166 -23 -21 20 -23
31 -23 122 l0 101 -34 -35 c-44 -45 -63 -60 -76 -60 -5 0 -10 -4 -10 -9 0 -5
-14 -12 -30 -16 -39 -9 -77 15 -95 58 -15 37 -2 119 29 175 9 19 16 35 14 37
-2 2 -35 -12 -73 -31 -90 -44 -133 -45 -174 -3 -54 54 -40 96 64 193 l60 56
-32 0 c-19 0 -37 -7 -45 -18z"/>
<path d="M2535 3023 c-12 -11 -15 -25 -11 -47 7 -35 21 -46 58 -46 36 0 58 24
58 65 0 25 -5 34 -22 39 -39 10 -66 7 -83 -11z"/>
<path d="M4676 3000 c6 -33 22 -74 49 -130 6 -14 20 -51 30 -82 13 -38 26 -60
42 -67 43 -20 93 15 93 63 -1 26 -19 49 -111 141 -105 104 -110 108 -103 75z"/>
<path d="M870 2985 c0 -8 7 -15 15 -15 9 0 12 6 9 15 -4 8 -10 15 -15 15 -5 0
-9 -7 -9 -15z"/>
<path d="M2765 2981 c-78 -36 -125 -105 -125 -182 0 -112 82 -219 167 -219 36
0 46 5 67 33 15 19 26 43 26 55 0 29 -46 62 -87 62 -27 0 -37 6 -51 30 -9 16
-20 30 -24 30 -5 0 -8 26 -8 57 0 56 1 58 51 105 54 51 50 59 -16 29z"/>
<path d="M1040 2969 c0 -5 5 -7 10 -4 6 3 10 8 10 11 0 2 -4 4 -10 4 -5 0 -10
-5 -10 -11z"/>
<path d="M648 2949 c-23 -25 -23 -52 0 -72 31 -29 66 -21 87 17 19 34 19 36 0
55 -22 26 -64 26 -87 0z"/>
<path d="M1080 2945 c0 -15 4 -24 10 -20 6 3 10 12 10 20 0 8 -4 17 -10 20 -6
4 -10 -5 -10 -20z"/>
<path d="M1123 2943 c-7 -15 -12 -50 -12 -77 l1 -51 8 50 c4 28 11 62 15 78 9
34 4 35 -12 0z"/>
<path d="M5845 2946 c-81 -13 -75 -24 18 -37 142 -20 269 -69 338 -130 40 -35
41 -38 36 -85 -3 -27 -9 -66 -13 -87 -19 -112 115 -173 189 -85 76 91 54 276
-41 348 -15 11 -31 23 -37 28 -18 13 -118 40 -193 51 -89 13 -204 12 -297 -3z"/>
<path d="M920 2921 c0 -5 5 -13 10 -16 6 -3 10 -2 10 4 0 5 -4 13 -10 16 -5 3
-10 2 -10 -4z"/>
<path d="M1072 2890 c0 -14 2 -19 5 -12 2 6 2 18 0 25 -3 6 -5 1 -5 -13z"/>
<path d="M5281 2889 c9 -13 33 -41 53 -61 28 -28 36 -44 36 -72 0 -39 28 -73
68 -83 37 -9 76 26 80 71 5 57 -12 71 -153 123 -22 8 -53 22 -70 31 l-30 16
16 -25z"/>
<path d="M2435 2887 c-53 -18 -67 -57 -43 -123 21 -59 80 -70 130 -25 27 24
33 36 33 70 0 23 -7 47 -16 56 -23 23 -70 33 -104 22z"/>
<path d="M963 2870 c6 -11 15 -20 18 -20 5 0 22 -13 66 -50 23 -19 33 -11 21
15 -8 19 -14 22 -20 13 -6 -10 -15 -5 -36 18 -33 38 -69 55 -49 24z"/>
<path d="M5660 2870 c19 -10 42 -19 50 -20 24 0 77 -52 84 -81 4 -18 -1 -35
-14 -52 -20 -25 -25 -43 -22 -84 4 -46 109 -42 129 5 31 72 26 105 -28 166
-43 50 -91 72 -169 80 l-65 6 35 -20z"/>
<path d="M5470 2876 c0 -3 22 -12 50 -21 73 -24 93 -55 85 -126 -6 -51 -5 -59
13 -68 29 -16 58 -14 77 5 13 14 15 27 10 68 -13 92 -79 146 -180 146 -30 0
-55 -2 -55 -4z"/>
<path d="M5950 2843 c-33 -6 -51 -23 -24 -23 32 0 93 -48 109 -87 34 -81 2
-143 -73 -143 -57 0 -87 -27 -87 -78 0 -73 67 -114 145 -91 79 24 150 141 150
245 -1 111 -108 197 -220 177z"/>
<path d="M6809 2837 c-49 -25 -31 -77 27 -77 32 0 34 2 34 35 0 43 -25 60 -61
42z"/>
<path d="M3132 2762 c-26 -24 -64 -46 -97 -57 -59 -18 -75 -36 -75 -84 0 -38
29 -55 80 -48 55 7 83 40 121 142 31 82 23 95 -29 47z"/>
<path d="M848 2779 c-33 -19 -41 -47 -21 -79 20 -35 60 -40 86 -12 27 29 21
65 -12 85 -34 20 -31 19 -53 6z"/>
<path d="M1100 2785 c0 -2 9 -9 20 -15 16 -9 18 -8 14 5 -5 13 -34 22 -34 10z"/>
<path d="M4657 2763 c-4 -3 -7 -31 -7 -62 0 -30 -8 -75 -17 -99 -16 -44 -16
-44 8 -63 30 -23 43 -24 63 -3 24 24 17 104 -9 104 -16 0 -27 28 -13 32 7 3 8
20 4 51 -7 45 -14 55 -29 40z"/>
<path d="M5104 2658 c32 -45 56 -98 56 -122 0 -39 31 -96 56 -102 47 -12 70
17 64 84 -1 19 -91 122 -105 122 -3 0 -14 9 -25 20 -11 11 -30 20 -41 20 -20
0 -21 -1 -5 -22z"/>
<path d="M2420 2652 c-48 -24 -80 -75 -80 -128 0 -24 6 -49 15 -58 8 -8 15
-19 15 -25 0 -6 5 -11 11 -11 6 0 17 -7 25 -15 25 -24 92 -19 131 11 87 66 83
178 -7 224 -48 25 -65 25 -110 2z"/>
<path d="M1064 2642 c-16 -10 -26 -49 -19 -72 8 -24 54 -50 75 -42 22 7 50 42
50 61 0 32 -30 61 -63 61 -18 0 -37 -4 -43 -8z"/>
<path d="M5353 2553 c-7 -2 -13 -17 -13 -31 0 -21 12 -35 51 -62 53 -35 115
-110 157 -190 95 -178 142 -480 103 -655 -21 -93 -50 -190 -72 -235 -11 -22
-24 -50 -29 -63 -6 -12 -19 -35 -30 -52 -11 -16 -23 -36 -26 -43 -9 -19 -62
-79 -117 -134 -27 -26 -41 -45 -32 -42 17 7 145 131 145 141 0 3 6 11 14 17 8
6 35 49 59 96 93 179 139 382 126 555 -10 129 -24 222 -39 271 -45 141 -43
136 -81 219 -12 28 -29 54 -36 58 -7 4 -13 14 -13 22 0 20 -117 135 -138 134
-9 0 -23 -3 -29 -6z"/>
<path d="M2900 2535 c-7 -9 -34 -29 -59 -47 -44 -29 -49 -30 -123 -25 -60 4
-78 2 -78 -8 0 -21 94 -55 153 -55 121 0 217 81 159 133 -23 21 -36 21 -52 2z"/>
<path d="M3480 2512 c0 -23 7 -58 16 -79 45 -102 73 -149 100 -165 27 -15 32
-16 61 -2 54 27 53 111 -2 136 -14 6 -25 15 -25 20 0 4 -6 8 -13 8 -7 0 -41
28 -75 62 l-62 62 0 -42z"/>
<path d="M6573 2520 c-42 -10 -99 -53 -118 -91 -9 -16 -20 -29 -25 -29 -6 0
-10 -7 -10 -15 0 -9 -20 -35 -45 -59 -25 -25 -45 -49 -45 -55 0 -31 71 -71
128 -71 31 -1 34 -2 19 -11 -11 -6 -38 -8 -66 -4 -44 6 -48 5 -59 -20 -7 -15
-10 -36 -7 -46 11 -34 -7 -43 -21 -10 -26 62 -101 19 -131 -75 -16 -52 -16
-60 -1 -118 9 -35 31 -87 48 -117 39 -65 38 -119 -4 -173 -32 -42 -32 -46 -3
-46 50 0 99 23 152 71 95 87 119 183 70 279 -25 49 -25 50 -5 50 11 0 31 -6
43 -14 12 -8 56 -17 97 -21 41 -4 86 -14 101 -22 25 -15 51 -56 64 -100 19
-67 56 13 56 122 0 72 -4 90 -28 135 -37 69 -89 103 -167 110 -61 5 -85 23
-44 33 13 4 50 30 82 59 32 29 66 56 75 60 27 11 84 8 126 -7 21 -8 41 -12 44
-9 8 8 -38 89 -66 117 -73 69 -172 98 -260 77z m177 -105 c35 -13 35 -13 -33
-14 -37 -1 -80 -7 -95 -15 -15 -7 -39 -16 -55 -20 -27 -6 -27 -6 -9 12 23 23
96 50 132 50 14 0 41 -6 60 -13z m-283 -120 c-15 -14 -38 -24 -50 -24 -20 1
-21 2 -2 6 11 3 31 14 45 24 36 26 40 23 7 -6z m110 -212 c53 -12 81 -25 108
-50 20 -18 34 -33 31 -33 -12 0 -56 24 -56 31 0 4 -13 10 -30 14 -16 4 -32 11
-35 16 -4 5 -21 9 -38 9 -18 0 -57 9 -87 20 l-55 19 45 -5 c25 -2 77 -12 117
-21z m-217 -275 c0 -38 -4 -68 -9 -68 -5 0 -11 -7 -13 -17 -2 -9 -4 30 -5 86
-1 89 1 100 13 84 8 -11 13 -44 14 -85z"/>
<path d="M4875 2461 c-6 -19 0 -92 13 -166 7 -39 8 -40 51 -40 76 0 79 48 8
156 -38 58 -63 76 -72 50z"/>
<path d="M4515 2412 c-6 -4 -19 -27 -30 -52 -10 -25 -38 -64 -63 -88 -50 -48
-55 -88 -14 -108 38 -19 74 -3 100 44 20 35 22 52 20 126 -2 56 -7 83 -13 78z"/>
<path d="M1907 2382 c-40 -44 -3 -116 68 -132 50 -12 148 -12 196 -1 45 10
169 90 169 108 0 17 -11 16 -45 -1 -40 -21 -154 -30 -206 -16 -24 7 -54 23
-66 36 -28 30 -91 33 -116 6z"/>
<path d="M2495 2381 c-63 -15 -84 -24 -135 -53 -8 -4 -24 -12 -36 -17 -37 -16
-133 -133 -166 -200 -29 -61 -31 -74 -31 -171 0 -76 5 -116 17 -144 10 -21 19
-36 22 -34 2 3 8 29 14 59 12 61 50 159 62 159 4 0 8 5 8 11 0 18 81 98 134
132 69 44 136 65 231 73 154 12 267 -29 372 -135 35 -35 67 -60 70 -57 11 10
-34 138 -65 186 -33 51 -98 117 -124 126 -10 3 -18 10 -18 15 0 5 -5 9 -11 9
-6 0 -25 6 -42 14 -91 40 -209 51 -302 27z"/>
<path d="M6111 2371 c-35 -34 -46 -68 -37 -115 13 -67 103 -113 162 -83 53 27
67 52 67 114 0 51 -3 59 -32 85 -25 23 -41 28 -81 28 -41 0 -54 -5 -79 -29z"/>
<path d="M3060 2374 c-26 -11 -40 -37 -40 -74 0 -45 33 -80 76 -80 17 0 35 -5
42 -12 20 -20 15 -109 -8 -143 -11 -16 -20 -34 -20 -38 0 -13 61 34 68 52 3 9
9 18 12 21 16 11 50 105 50 136 0 79 -47 135 -118 140 -26 2 -54 1 -62 -2z"/>
<path d="M5600 2371 c-25 -8 -25 -8 12 -25 42 -18 88 -63 88 -86 0 -9 14 -30
30 -48 17 -18 30 -36 30 -40 1 -11 72 -58 124 -81 66 -28 169 -29 211 -1 l30
20 -28 0 c-44 0 -80 27 -112 83 -63 113 -160 175 -284 182 -42 2 -87 1 -101
-4z"/>
<path d="M1204 2319 c17 -57 18 -135 3 -185 -22 -76 -42 -94 -99 -94 -27 0
-48 3 -49 8 -8 99 -10 108 -39 134 -45 41 -76 45 -129 17 -40 -21 -48 -31 -65
-82 -18 -54 -18 -59 -2 -101 19 -49 47 -83 91 -111 42 -27 185 -27 235 0 101
52 144 160 116 293 -15 72 -37 125 -58 138 -8 5 -9 0 -4 -17z"/>
<path d="M5487 2303 c-4 -3 -7 -24 -7 -45 0 -49 -13 -74 -48 -92 -81 -43 -118
-109 -126 -231 -6 -73 -5 -78 9 -60 30 40 69 75 84 75 9 0 25 7 35 15 11 8 26
15 33 15 21 0 78 62 91 99 13 36 2 100 -25 151 -7 14 -13 30 -13 35 -1 16 -26
45 -33 38z"/>
<path d="M4633 2279 c-18 -18 -16 -92 4 -126 39 -69 126 -102 291 -111 109 -7
115 -8 138 -35 26 -30 32 -78 12 -95 -7 -5 -27 -13 -45 -16 -49 -11 -57 -27
-50 -106 3 -38 2 -82 -3 -98 -9 -34 -39 -72 -56 -72 -6 0 -17 -7 -24 -15 -7
-8 -27 -15 -45 -15 -30 0 -34 4 -47 42 -15 50 -50 68 -95 52 -22 -7 -32 -22
-47 -67 -11 -31 -25 -57 -32 -57 -7 0 -14 -5 -16 -10 -2 -6 -29 -15 -60 -22
-53 -11 -60 -10 -85 8 -21 16 -29 31 -31 61 -3 39 -2 40 34 46 71 12 109 92
64 137 -11 11 -23 20 -27 20 -30 0 -87 25 -109 48 -22 23 -25 34 -21 77 2 27
10 51 16 53 6 2 11 10 11 17 0 7 3 15 8 17 4 2 20 18 37 36 24 27 26 32 10 26
-37 -13 -101 -72 -138 -126 -65 -94 -64 -199 2 -263 34 -33 39 -45 44 -96 6
-66 22 -92 91 -145 41 -31 51 -34 114 -34 87 0 137 21 194 82 40 43 47 46 105
51 34 3 81 15 106 27 46 23 117 83 117 98 0 6 6 12 13 15 6 2 18 25 25 50 11
37 12 53 1 84 -6 21 -15 40 -20 43 -4 3 3 27 17 53 40 80 29 140 -41 213 -61
64 -172 81 -281 44 -102 -36 -154 -11 -164 78 -4 35 -7 41 -17 31z"/>
<path d="M1641 2221 c-8 -5 -11 -16 -6 -31 7 -21 11 -22 64 -16 32 4 65 4 75
0 14 -5 13 -10 -11 -30 -33 -29 -63 -40 -72 -26 -11 17 -49 23 -96 16 -35 -5
-45 -10 -45 -25 0 -24 27 -36 43 -20 6 6 33 11 60 11 l49 0 -20 -27 c-19 -26
-24 -27 -106 -28 -68 0 -89 -4 -103 -18 -37 -36 24 -69 65 -35 20 17 81 37 86
29 3 -4 -5 -21 -16 -39 -16 -25 -27 -32 -53 -32 -49 0 -125 -37 -125 -61 0
-31 27 -34 53 -5 13 14 36 30 50 35 23 9 27 8 27 -7 0 -16 -24 -59 -40 -72 -4
-3 -3 -16 1 -30 4 -16 7 -19 8 -7 1 9 5 17 11 17 5 0 13 12 16 28 9 34 96 162
106 156 4 -3 8 -23 8 -45 0 -27 4 -39 14 -39 24 0 28 18 12 52 -24 48 -20 61
35 109 61 52 71 59 80 53 7 -4 -12 -68 -24 -80 -12 -12 -8 -42 6 -47 30 -11
40 10 39 82 -1 56 2 71 13 71 25 0 85 33 85 47 0 18 -50 16 -74 -2 -25 -19
-55 -19 -92 -1 -39 19 -106 28 -123 17z"/>
<path d="M3349 2197 c-32 -22 -42 -39 -54 -99 -12 -60 -70 -101 -177 -126 -62
-15 -124 4 -174 52 -38 37 -62 40 -43 5 50 -94 209 -169 355 -169 151 1 254
98 254 239 0 47 -4 61 -22 78 -54 49 -89 54 -139 20z"/>
<path d="M3646 2205 c-8 -21 8 -44 59 -84 62 -50 72 -71 49 -110 -10 -17 -22
-31 -26 -31 -4 0 -8 -6 -8 -14 0 -8 -5 -16 -11 -18 -15 -5 -28 -74 -20 -106 9
-32 43 -41 67 -17 11 11 15 30 13 68 -3 64 10 137 25 137 21 -1 135 -215 140
-265 1 -13 7 -30 13 -37 15 -20 37 -124 30 -147 -3 -12 -2 -21 3 -21 16 0 30
-263 15 -301 -4 -11 -21 -16 -55 -17 -79 -2 -129 -19 -136 -47 -9 -38 2 -55
35 -55 23 0 32 6 43 30 7 17 20 30 28 30 8 0 24 7 34 15 39 30 49 20 43 -42
-3 -32 -11 -59 -17 -61 -5 -2 -10 -19 -10 -38 0 -32 -9 -57 -56 -161 -8 -17
-14 -36 -14 -42 0 -6 -4 -11 -10 -11 -5 0 -12 -11 -16 -25 -3 -14 -10 -25 -15
-25 -5 0 -9 -5 -9 -11 0 -6 -9 -22 -20 -36 -23 -29 -26 -44 -7 -40 16 3 22
-104 8 -132 -13 -23 8 -45 36 -39 15 3 18 13 17 65 -1 39 -7 71 -17 87 -24 36
-21 63 12 105 16 21 33 49 36 64 4 15 11 27 16 27 5 0 9 9 9 19 0 10 6 21 13
24 16 6 38 -48 46 -113 5 -40 9 -45 34 -48 25 -3 27 -1 27 32 0 39 -32 101
-67 129 -13 10 -23 28 -23 39 0 31 22 98 32 98 5 0 7 8 4 18 -3 9 -1 33 5 52
6 19 14 82 19 140 11 126 11 109 4 198 -5 51 -3 72 5 72 20 0 80 -72 107 -127
23 -49 27 -53 59 -53 37 0 54 25 36 57 -28 52 -142 133 -186 133 -17 0 -24 12
-38 68 -9 37 -17 82 -17 100 0 17 -4 32 -10 32 -5 0 -15 20 -21 45 -6 25 -15
48 -20 51 -5 3 -9 16 -9 30 0 13 -4 24 -9 24 -5 0 -13 10 -16 21 -4 12 -20 40
-35 63 -17 24 -24 43 -18 47 13 9 74 -14 153 -57 56 -30 72 -34 91 -25 63 28
42 86 -36 102 -25 4 -80 8 -123 9 -43 0 -88 5 -100 11 -12 7 -48 38 -79 70
-58 60 -99 76 -112 44z"/>
<path d="M2540 2161 c-115 -25 -200 -129 -200 -245 0 -28 6 -58 13 -67 10 -14
15 -8 31 43 14 45 29 68 66 101 49 44 124 77 174 77 54 0 135 -33 178 -72 47
-42 59 -36 34 16 -9 19 -16 37 -16 40 0 11 -51 56 -91 82 -41 25 -131 38 -189
25z"/>
<path d="M1337 2105 c-3 -16 -9 -48 -13 -70 -7 -42 -42 -115 -56 -115 -4 0 -8
-7 -8 -15 0 -8 -4 -15 -8 -15 -5 0 -24 -21 -43 -47 -18 -26 -41 -55 -50 -64
-28 -28 -72 -132 -77 -183 -12 -122 99 -203 170 -124 34 39 35 53 3 122 -14
30 -25 59 -25 64 0 17 38 126 76 217 27 64 39 109 42 156 5 79 -1 119 -11 74z"/>
<path d="M5670 2127 c0 -3 13 -19 30 -34 25 -23 32 -43 47 -118 24 -126 71
-198 178 -269 30 -20 52 -26 92 -26 42 0 51 3 47 15 -4 8 -12 15 -19 15 -26 0
-46 40 -61 121 -9 46 -23 97 -33 113 -19 34 -108 126 -121 126 -6 0 -10 4 -10
9 0 10 -69 38 -117 47 -18 4 -33 4 -33 1z"/>
<path d="M4571 2087 c-27 -69 4 -183 66 -244 40 -41 45 -43 102 -43 54 0 62 3
85 31 47 56 44 111 -10 158 -31 27 -118 30 -132 4 -19 -33 -61 8 -87 85 l-13
37 -11 -28z"/>
<path d="M1741 2037 c-1 -10 -8 -25 -16 -34 -19 -18 -15 -37 7 -41 21 -4 30
26 19 63 -5 17 -10 22 -10 12z"/>
<path d="M2552 2010 c-44 -18 -53 -102 -12 -115 29 -9 40 2 40 41 0 22 6 37
15 40 20 8 45 -13 45 -37 0 -12 5 -16 15 -13 22 9 18 48 -8 72 -24 23 -57 27
-95 12z"/>
<path d="M1968 1990 c-24 -27 -24 -111 -1 -148 33 -51 61 -74 103 -79 l41 -6
-36 36 c-41 41 -46 83 -14 126 17 24 20 35 12 58 -8 24 -16 28 -49 31 -29 2
-43 -2 -56 -18z"/>
<path d="M4889 1899 c2 -41 -1 -57 -19 -81 -26 -35 -22 -47 5 -17 20 21 36
149 19 149 -5 0 -7 -23 -5 -51z"/>
<path d="M5585 1900 c-30 -47 -51 -60 -102 -60 -64 0 -109 -18 -152 -61 -41
-41 -104 -129 -97 -136 2 -2 22 6 45 18 39 20 47 21 112 10 103 -17 159 3 202
71 15 23 35 198 23 198 -3 0 -17 -18 -31 -40z"/>
<path d="M3528 1923 c-9 -2 -19 -15 -22 -29 -9 -34 -60 -54 -140 -54 -41 0
-66 -4 -68 -12 -3 -9 -21 -9 -77 3 -78 17 -98 12 -48 -13 18 -8 54 -26 80 -39
81 -40 159 -105 194 -161 18 -29 33 -61 33 -70 0 -9 12 -30 26 -47 20 -25 34
-31 63 -31 47 0 71 24 78 78 5 38 2 43 -53 99 -33 33 -77 68 -99 79 -22 10
-42 22 -45 26 -3 3 -18 10 -33 13 -15 4 -27 11 -27 15 0 5 -8 11 -17 14 -10 2
2 3 27 1 205 -18 206 -18 229 11 43 55 14 125 -51 123 -18 -1 -40 -3 -50 -6z"/>
<path d="M2740 1907 c0 -8 8 -17 18 -21 66 -22 257 -197 348 -320 38 -50 44
-65 44 -108 0 -41 -5 -54 -29 -79 -58 -57 -134 -30 -262 93 -21 21 -39 42 -39
48 0 5 -4 10 -9 10 -20 0 -124 182 -185 324 -27 62 -39 33 -26 -65 23 -190 -3
-413 -61 -509 -5 -8 -12 -22 -16 -30 -11 -24 -36 -48 -67 -64 -26 -13 -33 -13
-65 0 -43 18 -58 36 -72 88 -20 74 40 318 122 493 17 36 28 67 26 69 -9 10
-217 -187 -217 -205 0 -6 -4 -11 -9 -11 -8 0 -68 -94 -88 -140 -42 -95 -52
-124 -68 -193 -12 -55 -15 -94 -10 -130 11 -82 11 -102 -2 -102 -7 0 -13 -3
-13 -7 0 -5 0 -10 0 -13 0 -3 8 -1 18 4 14 7 21 2 36 -29 20 -41 109 -140 126
-140 5 0 10 -4 10 -8 0 -5 24 -18 53 -30 65 -27 182 -30 228 -6 17 8 37 14 44
12 12 -3 12 -7 0 -28 -8 -14 -18 -33 -21 -42 -3 -10 -10 -18 -14 -18 -4 0 -12
-11 -18 -24 -6 -14 -27 -32 -47 -42 -20 -9 -43 -28 -52 -40 -33 -51 14 -107
74 -87 48 16 113 135 113 211 l1 37 14 -34 c8 -18 15 -42 15 -53 0 -24 56
-126 84 -153 53 -52 77 -60 171 -60 98 0 120 9 180 70 67 67 102 170 92 274
-3 33 -3 62 0 65 3 3 19 -13 34 -34 16 -22 33 -40 38 -40 5 0 16 -6 23 -12 25
-24 76 -48 101 -48 28 0 67 41 67 69 0 35 -25 52 -89 61 -66 9 -195 66 -185
81 3 5 16 9 30 9 24 0 30 2 94 35 168 87 223 340 114 522 -10 18 -22 33 -26
33 -5 0 -8 4 -8 10 0 12 -98 110 -110 110 -6 0 -10 4 -10 9 0 14 -108 78 -205
122 -47 21 -115 41 -184 54 -41 8 -82 17 -93 20 -12 4 -18 1 -18 -8z m62 -683
c12 -26 28 -49 35 -51 7 -3 13 -9 13 -15 0 -12 97 -108 110 -108 5 0 10 -4 10
-9 0 -10 69 -38 118 -47 28 -6 32 -10 34 -43 6 -114 -9 -166 -69 -234 -53 -61
-101 -87 -160 -87 -28 0 -54 4 -58 9 -3 5 -19 12 -35 16 -63 14 -160 142 -160
211 0 13 12 36 26 51 48 52 83 165 84 270 0 105 13 114 52 37z"/>
<path d="M2817 1061 c-4 -17 -3 -21 5 -13 5 5 8 16 6 23 -3 8 -7 3 -11 -10z"/>
<path d="M2866 1035 c4 -8 14 -15 23 -15 9 0 25 -6 36 -14 11 -7 32 -16 48
-20 15 -3 27 -11 27 -16 0 -6 9 -10 19 -10 11 0 27 -7 35 -16 9 -8 16 -11 16
-5 0 20 -95 72 -158 85 -17 4 -32 12 -32 17 0 5 -4 9 -10 9 -5 0 -7 -7 -4 -15z"/>
<path d="M2760 983 c-70 -99 -92 -134 -87 -139 2 -3 15 9 28 26 13 17 34 42
47 54 12 13 22 29 22 35 0 7 9 21 20 33 21 23 26 38 12 38 -5 0 -23 -21 -42
-47z"/>
<path d="M2830 990 c0 -5 4 -10 9 -10 6 0 13 5 16 10 3 6 -1 10 -9 10 -9 0
-16 -4 -16 -10z"/>
<path d="M2904 955 c-9 -21 -2 -26 13 -10 8 9 9 16 3 20 -6 3 -13 -1 -16 -10z"/>
<path d="M2790 925 c0 -9 6 -12 15 -9 8 4 15 10 15 15 0 5 -7 9 -15 9 -8 0
-15 -7 -15 -15z"/>
<path d="M2972 918 c3 -7 15 -15 29 -18 31 -7 37 -42 11 -67 -10 -10 -25 -33
-33 -50 -8 -18 -16 -33 -19 -33 -3 0 -18 9 -35 20 -38 25 -55 25 -48 0 4 -14
14 -20 34 -20 24 0 29 -4 29 -24 0 -14 -4 -27 -8 -30 -14 -8 -52 5 -52 18 0 7
-16 18 -35 25 -39 14 -45 33 -15 54 11 8 17 17 13 20 -12 12 -22 7 -28 -13 -4
-13 -15 -20 -31 -20 -13 0 -24 -3 -24 -7 1 -16 26 -40 37 -36 16 6 43 -21 43
-42 0 -12 4 -14 16 -7 11 6 28 5 46 -2 26 -10 32 -8 48 12 10 12 29 22 42 23
12 0 17 3 11 6 -20 7 -15 41 7 60 11 10 20 25 20 34 0 28 11 49 26 49 8 0 11
6 8 15 -4 8 -12 15 -19 15 -7 0 -18 7 -25 15 -15 18 -53 20 -48 3z"/>
<path d="M2748 869 c-10 -6 -18 -18 -18 -28 0 -11 -7 -21 -15 -25 -8 -3 -15
-12 -15 -21 0 -8 7 -15 15 -15 8 0 15 7 15 15 0 8 9 24 21 36 25 25 23 53 -3
38z"/>
<path d="M2940 845 c0 -8 7 -15 15 -15 8 0 15 4 15 9 0 5 -7 11 -15 15 -9 3
-15 0 -15 -9z"/>
<path d="M3940 1911 c0 -5 17 -15 38 -22 45 -14 84 -40 134 -87 35 -33 39 -35
63 -22 14 7 25 21 25 31 0 41 -135 109 -215 109 -25 0 -45 -4 -45 -9z"/>
<path d="M1612 1870 c2 -33 7 -46 21 -48 24 -5 23 39 -3 69 l-20 24 2 -45z"/>
<path d="M2268 1842 c-28 -77 -90 -132 -151 -132 -13 0 -39 -5 -56 -11 -47
-16 -100 4 -152 57 -37 38 -49 44 -85 44 -34 0 -49 -6 -73 -31 -37 -37 -40
-76 -11 -136 45 -94 158 -141 267 -110 31 9 59 20 62 24 3 5 23 17 44 28 42
22 106 88 141 144 22 36 56 131 56 157 0 32 -27 10 -42 -34z"/>
<path d="M2670 1855 c0 -8 7 -15 15 -15 8 0 15 7 15 15 0 8 -7 15 -15 15 -8 0
-15 -7 -15 -15z"/>
<path d="M3811 1835 c-61 -68 -64 -125 -5 -125 31 0 34 3 34 30 0 17 -4 30
-10 30 -12 0 -14 27 -2 32 4 2 15 18 25 36 25 45 1 43 -42 -3z"/>
<path d="M1413 1825 c-22 -9 -33 -21 -33 -35 0 -27 15 -25 59 9 20 15 43 31
51 34 8 3 2 6 -15 6 -16 0 -45 -6 -62 -14z"/>
<path d="M2520 1815 c0 -8 7 -15 15 -15 8 0 15 7 15 15 0 8 -7 15 -15 15 -8 0
-15 -7 -15 -15z"/>
<path d="M1572 1783 c17 -41 26 -49 39 -36 15 15 -14 63 -36 63 -12 0 -13 -5
-3 -27z"/>
<path d="M2723 1794 c-7 -20 11 -38 31 -31 23 9 20 34 -5 40 -13 3 -22 0 -26
-9z"/>
<path d="M1498 1769 c-4 -10 -24 -19 -51 -23 -50 -8 -92 -38 -84 -60 7 -18 47
-9 47 10 0 8 6 14 14 14 8 0 17 7 20 16 4 12 15 14 42 11 40 -6 51 -17 61 -59
7 -36 43 -39 43 -5 0 22 -46 67 -69 67 -5 0 -11 10 -13 23 -3 18 -4 19 -10 6z"/>
<path d="M4000 1753 c1 -5 20 -22 44 -40 24 -17 63 -59 87 -92 40 -55 47 -60
81 -61 27 0 40 5 48 20 13 24 3 70 -16 70 -8 0 -14 4 -14 9 0 5 -23 24 -52 41
-71 44 -179 76 -178 53z"/>
<path d="M2504 1735 c-4 -9 -2 -21 4 -27 15 -15 44 -1 40 19 -4 23 -36 29 -44
8z"/>
<path d="M4743 1743 c9 -2 23 -2 30 0 6 3 -1 5 -18 5 -16 0 -22 -2 -12 -5z"/>
<path d="M5725 1739 c5 -8 14 -21 21 -29 8 -10 14 -57 16 -135 5 -151 12 -171
95 -264 44 -49 106 -79 138 -67 14 5 12 10 -12 30 -27 24 -28 26 -28 133 0 98
-3 113 -28 166 -24 50 -80 116 -129 153 -8 7 -29 15 -48 19 -26 6 -31 4 -25
-6z"/>
<path d="M2780 1721 c-22 -43 35 -90 68 -57 12 12 14 22 6 43 -12 36 -57 44
-74 14z"/>
<path d="M3857 1692 c-52 -52 -57 -66 -26 -82 31 -17 45 -7 59 45 7 26 19 49
27 52 17 6 17 33 1 33 -7 -1 -34 -22 -61 -48z"/>
<path d="M1467 1665 c-4 -8 -2 -17 3 -20 6 -4 10 3 10 14 0 25 -6 27 -13 6z"/>
<path d="M2478 1649 c-11 -6 -18 -22 -18 -39 0 -24 5 -31 27 -36 20 -6 31 -2
45 16 22 27 22 34 2 54 -18 18 -32 20 -56 5z"/>
<path d="M1388 1633 c-33 -21 -42 -39 -23 -47 14 -5 75 41 75 56 0 13 -23 9
-52 -9z"/>
<path d="M2892 1639 c-35 -13 -48 -53 -28 -84 13 -20 24 -25 60 -25 39 0 45 3
50 26 4 14 4 34 1 45 -9 27 -55 49 -83 38z"/>
<path d="M1522 1604 c7 -15 14 -21 16 -15 5 16 -5 41 -17 41 -7 0 -6 -10 1
-26z"/>
<path d="M1433 1570 c-45 -24 -63 -40 -63 -56 0 -23 34 -16 45 9 6 12 20 26
33 32 12 5 22 15 22 22 0 7 -1 12 -2 12 -2 -1 -18 -9 -35 -19z"/>
<path d="M2100 1535 c-37 -38 -56 -51 -58 -41 -3 12 -15 9 -63 -16 -75 -37
-130 -46 -148 -24 -20 24 -66 20 -96 -9 -64 -65 17 -169 93 -119 15 10 35 23
44 29 9 5 39 25 67 42 28 18 51 30 51 27 0 -4 -21 -38 -46 -76 -78 -119 -104
-228 -65 -275 15 -18 30 -23 65 -23 41 0 48 3 66 33 15 23 18 40 13 62 -3 17
-6 59 -6 95 1 81 38 167 121 279 31 42 41 71 24 71 -4 0 -32 -25 -62 -55z"/>
<path d="M5555 1566 c-46 -36 -71 -40 -122 -21 -78 30 -177 14 -268 -45 -16
-10 -46 -27 -65 -37 l-35 -18 75 -5 c51 -4 93 -14 134 -33 72 -33 149 -36 205
-7 21 10 41 25 45 32 3 7 15 27 26 43 11 17 24 40 29 52 5 11 15 24 20 28 15
9 14 35 -1 35 -7 0 -26 -11 -43 -24z"/>
<path d="M3906 1542 c-62 -36 -94 -89 -65 -107 23 -15 57 6 80 50 13 25 27 45
31 45 5 0 8 7 8 15 0 20 -18 19 -54 -3z"/>
<path d="M1517 1543 c-8 -12 20 -46 33 -41 7 2 4 12 -8 26 -11 13 -22 19 -25
15z"/>
<path d="M2430 1508 c-26 -28 -26 -62 0 -88 37 -37 100 -5 100 50 0 55 -62 78
-100 38z"/>
<path d="M2986 1517 c-25 -18 -25 -90 -1 -117 23 -25 75 -26 103 -1 55 47 25
131 -47 131 -20 0 -45 -6 -55 -13z"/>
<path d="M5674 1417 c1 -42 -4 -70 -13 -81 -48 -57 -64 -194 -34 -282 30 -88
84 -154 128 -154 13 0 12 6 -6 38 l-22 38 34 70 c31 63 34 76 34 159 -1 110
-23 178 -77 235 -21 22 -40 40 -42 40 -1 0 -2 -29 -2 -63z"/>
<path d="M1392 1458 c-15 -15 -16 -48 -2 -48 9 0 30 40 30 56 0 8 -16 4 -28
-8z"/>
<path d="M1510 1463 c0 -5 7 -16 14 -26 11 -14 15 -15 24 -4 9 10 8 17 0 25
-13 13 -38 16 -38 5z"/>
<path d="M3497 1433 c-14 -13 -7 -33 11 -33 26 0 34 11 21 27 -13 14 -22 16
-32 6z"/>
<path d="M4825 1423 c-84 -32 -140 -56 -145 -62 -3 -3 -22 -15 -43 -26 -75
-40 -193 -175 -236 -270 -64 -144 -52 -293 36 -460 55 -105 139 -180 228 -204
90 -24 213 -5 259 42 27 27 56 97 56 137 0 96 -115 186 -206 161 -51 -14 -103
-14 -144 1 -32 11 -70 41 -70 55 0 3 -8 15 -17 26 -14 15 -18 38 -18 115 0
109 15 161 73 250 39 59 140 162 159 162 7 0 13 4 13 9 0 5 21 20 48 33 86 42
91 63 7 31z"/>
<path d="M1438 1407 c-46 -41 -59 -87 -23 -87 8 0 17 15 21 35 3 20 15 42 26
49 11 8 15 16 11 19 -5 3 -21 -4 -35 -16z"/>
<path d="M1530 1396 c0 -14 24 -29 33 -19 3 3 3 11 0 19 -7 18 -33 18 -33 0z"/>
<path d="M3910 1383 c-60 -9 -101 -52 -78 -80 18 -23 38 -14 88 37 48 50 48
53 -10 43z"/>
<path d="M4087 1354 c43 -42 83 -107 83 -136 0 -14 8 -18 35 -18 31 0 35 3 35
27 0 30 -39 93 -57 93 -7 0 -13 4 -13 9 0 12 -63 49 -97 57 -24 6 -23 4 14
-32z"/>
<path d="M2395 1368 c-28 -15 -45 -38 -45 -63 0 -37 24 -74 51 -80 78 -17 128
65 78 129 -22 27 -51 33 -84 14z"/>
<path d="M3517 1353 c-21 -20 8 -48 38 -37 25 10 18 44 -8 44 -13 0 -27 -3
-30 -7z"/>
<path d="M4818 1353 c-10 -2 -18 -8 -18 -13 0 -5 -8 -11 -17 -14 -24 -8 -95
-74 -116 -108 -10 -16 -17 -48 -17 -76 0 -41 5 -54 34 -85 39 -42 71 -47 104
-17 42 39 37 111 -9 125 -43 14 -24 79 44 150 42 43 40 50 -5 38z"/>
<path d="M1556 1315 c7 -17 20 -20 28 -6 3 5 -1 12 -10 15 -22 9 -24 8 -18 -9z"/>
<path d="M5430 1295 c-37 -27 -97 -34 -118 -13 -9 9 -44 13 -100 13 -82 0 -92
-2 -174 -43 -48 -24 -90 -47 -93 -52 -3 -4 13 -6 35 -3 40 6 118 -16 150 -42
8 -6 39 -19 68 -28 74 -23 142 -8 194 43 21 20 38 40 38 44 0 9 43 70 53 74
12 6 8 32 -6 32 -7 0 -28 -11 -47 -25z"/>
<path d="M1432 1283 c-15 -27 -15 -50 -1 -59 19 -11 28 10 20 46 -7 34 -8 34
-19 13z"/>
<path d="M3517 1283 c-4 -3 -7 -19 -7 -35 0 -26 3 -29 28 -26 20 2 28 9 30 27
5 31 -31 55 -51 34z"/>
<path d="M1487 1239 c-17 -19 -27 -83 -13 -96 12 -13 24 12 28 65 3 28 5 52 4
51 -1 0 -9 -9 -19 -20z"/>
<path d="M1575 1240 c19 -21 37 -18 28 5 -3 8 -14 15 -26 15 -19 0 -19 -1 -2
-20z"/>
<path d="M4038 1234 c6 -3 12 -12 12 -20 0 -8 4 -14 9 -14 15 0 51 -65 51 -91
1 -44 39 -74 73 -57 27 14 20 51 -19 96 -41 48 -79 77 -114 86 -14 3 -19 3
-12 0z"/>
<path d="M5550 1201 c0 -36 -35 -84 -77 -106 -49 -26 -118 -98 -142 -149 -11
-23 -25 -69 -32 -103 -15 -71 -3 -129 33 -165 l21 -21 -7 27 c-8 31 19 96 40
96 8 0 14 4 14 9 0 5 14 14 30 21 17 7 30 16 30 21 0 5 7 9 15 9 8 0 15 4 15
9 0 6 11 21 24 36 40 43 69 140 69 228 1 60 -3 82 -16 94 -16 16 -17 16 -17
-6z"/>
<path d="M3480 1179 c0 -14 5 -19 17 -17 26 5 29 38 4 38 -15 0 -21 -6 -21
-21z"/>
<path d="M1578 1173 c12 -2 27 -13 32 -24 14 -24 40 -25 40 0 0 20 -28 32 -70
30 -23 -2 -24 -2 -2 -6z"/>
<path d="M4389 1159 c-23 -32 -57 -91 -78 -137 -34 -73 -81 -255 -81 -315 0
-43 -25 -130 -52 -183 -20 -39 -25 -42 -72 -47 -28 -2 -52 -10 -54 -16 -2 -6
-9 -11 -15 -11 -16 0 -37 -48 -37 -85 0 -20 10 -42 29 -63 27 -29 35 -32 90
-32 94 0 153 48 186 148 18 54 18 88 -1 335 -9 118 10 208 78 356 30 66 33 85
7 50z"/>
<path d="M1513 1151 c-17 -28 -16 -68 2 -74 19 -8 22 0 15 51 -5 39 -6 41 -17
23z"/>
<path d="M1560 1130 c0 -17 27 -77 38 -84 14 -9 42 4 42 19 0 14 -59 75 -72
75 -4 0 -8 -5 -8 -10z"/>
<path d="M3450 1125 c0 -8 4 -15 9 -15 5 0 11 7 15 15 3 9 0 15 -9 15 -8 0
-15 -7 -15 -15z"/>
<path d="M3875 1083 c-55 -12 -85 -49 -55 -68 9 -6 120 61 120 72 0 4 -39 2
-65 -4z"/>
<path d="M3438 1040 c-33 -36 -43 -40 -85 -41 -27 0 -66 -4 -88 -8 l-40 -7 40
-11 c128 -36 215 -42 270 -19 32 14 35 18 35 58 0 53 -13 68 -59 68 -29 -1
-44 -9 -73 -40z"/>
<path d="M4018 1058 c3 -13 11 -32 17 -43 7 -11 16 -33 19 -49 10 -43 42 -68
67 -53 31 19 23 42 -37 106 -60 65 -75 74 -66 39z"/>
<path d="M4968 1034 c-24 -13 -45 -36 -95 -102 -24 -32 -73 -52 -124 -52 l-42
0 24 -19 c45 -35 99 -51 173 -51 82 0 96 7 178 93 44 46 61 57 87 57 44 0 33
11 -52 54 -78 38 -106 42 -149 20z"/>
<path d="M2060 965 c0 -18 5 -25 20 -25 15 0 20 7 20 25 0 18 -5 25 -20 25
-15 0 -20 -7 -20 -25z"/>
<path d="M3752 944 c-28 -19 -28 -41 -1 -49 13 -4 28 0 41 11 11 10 36 26 56
36 l37 17 -55 1 c-35 0 -64 -6 -78 -16z"/>
<path d="M2089 894 c-18 -21 7 -47 32 -33 10 5 19 16 19 23 0 19 -37 27 -51
10z"/>
<path d="M2160 830 c0 -23 35 -28 43 -6 7 18 -1 26 -25 26 -11 0 -18 -7 -18
-20z"/>
<path d="M3702 839 c-13 -5 -22 -15 -20 -21 7 -21 43 -21 90 0 24 11 50 22 58
25 8 3 -12 5 -45 6 -33 0 -71 -4 -83 -10z"/>
<path d="M3211 799 c5 -23 14 -50 19 -60 13 -23 13 -29 -1 -29 -20 0 -48 -45
-49 -79 0 -39 22 -60 61 -61 56 0 76 82 39 161 -50 107 -85 142 -69 68z"/>
<path d="M2242 808 c5 -15 28 -18 29 -3 0 6 -7 12 -17 13 -10 3 -15 -1 -12
-10z"/>
<path d="M2455 777 c-61 -30 -78 -45 -69 -59 9 -15 -19 -8 -38 8 -10 10 -41
19 -69 22 -43 4 -55 2 -66 -13 -16 -23 -16 -65 0 -86 35 -44 95 -30 195 47
130 99 149 131 47 81z"/>
<path d="M3921 773 c5 -21 9 -52 9 -70 0 -37 16 -51 36 -31 16 16 3 76 -25
115 -23 33 -30 28 -20 -14z"/>
<path d="M3643 773 c-7 -2 -13 -16 -13 -29 0 -19 5 -24 25 -24 14 0 28 7 31
15 4 9 20 16 43 16 27 1 30 3 11 6 -14 3 -29 9 -34 14 -11 10 -43 11 -63 2z"/>
<path d="M3747 668 c-21 -28 -37 -52 -34 -54 3 -3 14 8 26 23 11 15 28 36 37
45 9 9 15 21 13 26 -2 5 -21 -13 -42 -40z"/>
<path d="M2608 639 c-8 -87 3 -145 35 -179 43 -45 90 -39 110 14 12 32 -2 55
-42 67 -41 12 -71 51 -71 91 0 13 -6 32 -13 43 -12 16 -14 12 -19 -36z"/>
<path d="M3553 663 c-7 -2 -13 -11 -13 -19 0 -25 43 -21 73 7 l21 19 -35 -1
c-19 0 -40 -3 -46 -6z"/>
<path d="M3658 653 c6 -2 18 -2 25 0 6 3 1 5 -13 5 -14 0 -19 -2 -12 -5z"/>
<path d="M3670 583 c-22 -23 -23 -25 -4 -15 12 6 24 18 28 27 7 20 5 19 -24
-12z"/>
<path d="M3751 570 c-1 -14 -12 -46 -26 -72 -26 -49 -25 -78 4 -78 19 0 51 49
50 77 0 10 -6 36 -14 58 -10 32 -13 35 -14 15z"/>
<path d="M3463 573 c-7 -2 -13 -13 -13 -24 0 -13 7 -19 23 -19 22 0 57 27 57
43 0 8 -49 8 -67 0z"/>
<path d="M3550 555 c7 -8 19 -15 27 -15 13 0 13 3 3 15 -7 8 -19 15 -27 15
-13 0 -13 -3 -3 -15z"/>
<path d="M3066 524 c-31 -30 -9 -84 34 -84 24 0 50 26 50 50 0 11 -13 26 -30
35 -36 19 -35 19 -54 -1z"/>
<path d="M3628 502 c3 -26 -4 -53 -21 -86 -26 -52 -26 -76 2 -76 41 0 64 97
39 167 -16 44 -24 42 -20 -5z"/>
<path d="M3331 476 c-7 -8 -10 -24 -6 -36 8 -26 48 -27 66 -1 12 17 20 19 57
12 43 -8 56 1 25 18 -10 5 -43 12 -74 16 -43 5 -58 4 -68 -9z"/>
<path d="M2803 462 c-27 -17 -19 -70 12 -78 48 -12 73 36 37 69 -20 19 -31 21
-49 9z"/>
<path d="M2920 450 c-37 -37 -23 -115 21 -125 89 -20 145 60 84 120 -30 31
-77 33 -105 5z"/>
<path d="M3523 405 c-7 -22 -13 -45 -13 -50 0 -6 -13 -22 -30 -35 -33 -28 -37
-45 -14 -54 43 -17 77 42 72 125 l-3 54 -12 -40z"/>
<path d="M3425 393 c-60 -15 -131 -43 -140 -57 -13 -21 13 -66 39 -66 12 0 50
28 90 65 66 63 68 72 11 58z"/>
</g>
</svg>
